<?xml version="1.0" standalone="no"?>
<!DOCTYPE svg PUBLIC "-//W3C//DTD SVG 20010904//EN"
 "http://www.w3.org/TR/2001/REC-SVG-20010904/DTD/svg10.dtd">
<svg version="1.0" xmlns="http://www.w3.org/2000/svg"
 width="150px" height="220px" viewBox="0 0 1203.000000 994.000000"
 preserveAspectRatio="xMidYMid meet">

<g transform="translate(0.000000,994.000000) scale(0.100000,-0.100000)"
fill="#000000" stroke="none">
<path d="M6180 9750 c-210 -19 -416 -138 -544 -313 -60 -81 -59 -80 -72 -103
-85 -151 -141 -285 -169 -404 -10 -41 -24 -89 -31 -107 -8 -17 -14 -39 -14
-50 0 -10 -7 -38 -16 -63 -9 -25 -22 -79 -29 -120 -7 -41 -29 -147 -49 -235
-20 -88 -47 -230 -61 -315 -14 -85 -29 -177 -35 -205 -6 -27 -13 -78 -16 -111
l-7 -62 48 -46 c27 -25 54 -46 61 -46 6 0 37 -11 68 -25 31 -14 65 -25 76 -25
10 0 34 -9 52 -19 18 -11 44 -22 58 -25 78 -17 182 -45 187 -50 4 -4 -7 -37
-24 -75 -20 -45 -27 -73 -21 -79 6 -6 6 -12 -1 -16 -17 -11 -13 -24 9 -31 11
-4 18 -11 15 -16 -9 -13 9 -11 23 3 10 10 15 10 20 1 4 -6 27 -14 52 -18 25
-4 53 -13 62 -22 10 -8 25 -12 36 -9 15 5 20 2 18 -10 0 -9 8 -21 19 -28 11
-6 39 -23 62 -39 23 -15 44 -23 48 -18 3 5 1 12 -5 16 -13 8 10 44 25 38 8 -2
17 14 24 41 7 29 17 46 26 46 8 0 15 9 15 20 0 17 7 20 43 20 40 1 41 1 22 16
-20 16 -20 16 3 9 16 -5 22 -2 22 9 0 12 10 16 39 16 22 0 52 5 66 10 23 9 26
8 21 -5 -3 -9 0 -15 10 -15 9 0 12 5 8 12 -5 8 -2 9 9 5 10 -4 24 -10 32 -13
8 -3 15 -2 15 3 0 5 15 10 33 10 17 0 44 4 58 8 24 6 28 4 34 -24 4 -17 10
-31 14 -31 4 0 7 -19 7 -42 -1 -24 4 -43 11 -45 11 -4 43 53 57 103 6 18 12
20 64 16 32 -2 75 1 95 6 22 6 49 7 67 2 26 -7 31 -5 52 26 25 37 48 44 48 15
0 -22 38 -35 56 -20 9 7 18 4 32 -12 13 -13 25 -18 34 -13 18 11 45 15 101 14
34 -1 56 5 78 20 16 12 37 19 45 16 9 -3 26 5 40 19 14 14 29 25 35 25 12 0
39 61 39 88 0 11 6 25 14 31 12 10 15 7 19 -16 l4 -28 2 30 c0 17 10 38 21 48
18 15 20 29 20 129 0 62 -6 190 -14 283 -21 237 -40 664 -41 890 -1 201 -7
236 -65 393 -19 50 -77 140 -118 181 -7 8 -20 24 -28 37 -22 32 -174 141 -236
168 -29 13 -71 26 -93 30 -22 4 -44 11 -50 15 -5 5 -21 11 -35 15 -14 4 -50
14 -80 22 -86 24 -305 54 -378 52 -37 0 -101 -4 -142 -8z m951 -901 c-21 -20
-21 -20 -21 0 0 11 8 27 18 37 16 17 17 17 20 0 2 -10 -6 -27 -17 -37z m-142
-11 c5 -13 5 -25 -1 -29 -5 -3 -13 -47 -19 -99 -8 -71 -8 -95 2 -104 9 -8 10
-8 6 0 -4 7 1 14 11 17 9 3 35 12 57 21 39 16 39 16 16 -1 -14 -10 -34 -26
-45 -36 l-21 -18 22 10 c40 20 58 13 72 -25 7 -19 19 -38 27 -41 20 -7 18 -23
-3 -23 -15 0 -14 -2 4 -15 14 -10 23 -29 26 -57 2 -24 10 -68 17 -99 12 -49
11 -65 -4 -127 -38 -156 -111 -354 -140 -377 -7 -5 -34 -50 -61 -100 -61 -112
-77 -134 -123 -162 -43 -26 -71 -31 -53 -9 18 21 -12 39 -69 40 -29 0 -51 5
-54 12 -3 7 -13 10 -24 8 -10 -3 -24 2 -32 11 -7 9 -9 15 -4 14 12 -3 81 28
88 40 3 5 -6 13 -22 19 -39 13 -133 109 -175 178 -20 34 -38 78 -41 104 -3 25
-10 79 -15 121 -5 42 -11 159 -12 260 l-3 184 46 48 c26 26 50 43 53 37 8 -12
25 -13 25 -1 0 5 -9 11 -21 14 -18 5 -19 8 -7 26 14 23 57 41 97 41 31 0 59
-16 48 -27 -5 -4 -12 -1 -17 6 -8 14 -40 9 -40 -7 0 -5 9 -17 21 -28 16 -15
24 -16 39 -6 27 16 30 15 30 -8 0 -11 2 -20 4 -20 2 0 12 -3 21 -6 13 -5 15
-2 9 22 l-7 29 32 -29 c20 -20 31 -39 31 -58 0 -20 4 -26 15 -21 22 8 45 56
45 92 0 45 18 83 55 118 19 18 35 29 35 25 0 -4 8 8 16 26 19 38 31 41 43 10z
m131 -249 c0 -4 -7 -6 -15 -3 -8 4 -15 10 -15 15 0 4 7 6 15 3 8 -4 15 -10 15
-15z m287 -796 c-3 -10 -5 -2 -5 17 0 19 2 27 5 18 2 -10 2 -26 0 -35z m-829
-139 c-4 -3 -12 5 -18 18 -12 22 -12 22 6 6 10 -10 15 -20 12 -24z m-22 -209
c-1 -24 -10 -53 -19 -62 -8 -10 -15 -21 -14 -25 1 -3 -2 -10 -7 -15 -5 -4 -6
-3 -3 4 4 6 2 13 -5 15 -9 3 -6 21 12 66 14 34 28 62 32 62 3 0 5 -20 4 -45z"/>
<path d="M6803 8413 c9 -2 23 -2 30 0 6 3 -1 5 -18 5 -16 0 -22 -2 -12 -5z"/>
<path d="M6741 8383 c-12 -14 -24 -37 -27 -50 -10 -37 5 -91 29 -108 25 -17
78 -20 94 -4 7 7 19 3 41 -15 16 -14 32 -26 36 -26 12 0 45 44 39 53 -3 6 -1
7 5 3 14 -8 44 22 36 36 -5 7 -12 5 -20 -7 -19 -26 -46 -12 -38 19 5 21 2 26
-19 32 -14 3 -49 1 -77 -5 -28 -6 -57 -11 -64 -11 -22 0 -29 48 -11 73 30 43
9 53 -24 10z"/>
<path d="M6993 8238 c-26 -33 -24 -40 5 -19 18 12 32 24 32 27 0 9 -28 3 -37
-8z"/>
<path d="M6713 8057 c-95 -25 -119 -42 -88 -60 38 -22 105 -47 105 -38 0 10
-30 25 -43 22 -5 -1 -6 3 -2 9 9 15 66 12 115 -5 24 -8 67 -18 97 -22 42 -4
58 -11 70 -29 17 -26 33 -30 50 -13 7 7 3 26 -15 65 -23 48 -29 54 -56 54 -17
0 -44 9 -61 20 -38 25 -69 24 -172 -3z"/>
<path d="M6660 7950 c0 -11 54 -50 69 -50 6 0 11 -4 11 -10 0 -5 12 -21 27
-35 24 -22 37 -25 99 -25 74 0 86 6 97 48 5 23 -16 32 -28 12 -15 -25 -129 4
-142 36 -4 10 -17 15 -37 13 -17 -1 -39 1 -48 5 -39 14 -48 15 -48 6z"/>
<path d="M5219 6842 c-3 -20 -2 -29 4 -23 5 5 7 19 5 32 -3 20 -5 19 -9 -9z"/>
<path d="M5242 6840 c0 -14 2 -19 5 -12 2 6 2 18 0 25 -3 6 -5 1 -5 -13z"/>
<path d="M4931 6793 c1 -10 5 -29 9 -43 7 -21 8 -19 9 18 1 23 -3 42 -9 42 -5
0 -10 -8 -9 -17z"/>
<path d="M5107 6797 c-11 -29 -9 -53 4 -40 6 6 9 21 7 34 -3 21 -4 22 -11 6z"/>
<path d="M4051 6784 c0 -11 3 -14 6 -6 3 7 2 16 -1 19 -3 4 -6 -2 -5 -13z"/>
<path d="M5082 6780 c0 -14 2 -19 5 -12 2 6 2 18 0 25 -3 6 -5 1 -5 -13z"/>
<path d="M5221 6784 c0 -11 3 -14 6 -6 3 7 2 16 -1 19 -3 4 -6 -2 -5 -13z"/>
<path d="M4801 6774 c0 -11 3 -14 6 -6 3 7 2 16 -1 19 -3 4 -6 -2 -5 -13z"/>
<path d="M5252 6770 c0 -14 2 -19 5 -12 2 6 2 18 0 25 -3 6 -5 1 -5 -13z"/>
<path d="M5280 6765 c0 -8 5 -15 10 -15 6 0 10 7 10 15 0 8 -4 15 -10 15 -5 0
-10 -7 -10 -15z"/>
<path d="M5310 6766 c0 -8 4 -17 9 -21 6 -3 9 4 8 15 -1 23 -17 28 -17 6z"/>
<path d="M5354 6744 c3 -22 6 -41 6 -44 1 -3 5 4 9 14 6 16 10 14 25 -18 19
-40 37 -39 35 2 l-1 27 -8 -30 -8 -30 -1 33 c0 17 -5 32 -11 32 -5 0 -10 10
-11 23 0 21 -1 21 -9 2 -7 -16 -9 -17 -9 -3 -1 9 -6 20 -12 24 -8 4 -9 -6 -5
-32z"/>
<path d="M5141 6744 c0 -11 3 -14 6 -6 3 7 2 16 -1 19 -3 4 -6 -2 -5 -13z"/>
<path d="M5254 6716 c1 -8 5 -18 8 -22 4 -3 5 1 4 10 -1 8 -5 18 -8 22 -4 3
-5 -1 -4 -10z"/>
<path d="M4817 6691 c-4 -17 -3 -21 5 -13 5 5 8 16 6 23 -3 8 -7 3 -11 -10z"/>
<path d="M4780 6688 c0 -3 7 -19 15 -34 8 -16 15 -22 15 -14 -1 8 -7 24 -15
34 -8 11 -15 17 -15 14z"/>
<path d="M4410 6663 c0 -15 -2 -16 -11 -3 -9 12 -10 12 -5 -3 3 -10 6 -25 6
-33 0 -9 4 -13 9 -10 12 8 20 55 10 62 -5 3 -9 -3 -9 -13z"/>
<path d="M5465 6670 c3 -5 8 -10 11 -10 2 0 4 5 4 10 0 6 -5 10 -11 10 -5 0
-7 -4 -4 -10z"/>
<path d="M5500 6655 c0 -18 19 -40 26 -32 4 4 0 15 -9 24 -9 10 -17 13 -17 8z"/>
<path d="M5540 6624 c0 -8 5 -12 10 -9 6 4 8 11 5 16 -9 14 -15 11 -15 -7z"/>
<path d="M4335 6620 c-3 -5 -1 -10 4 -10 6 0 11 5 11 10 0 6 -2 10 -4 10 -3 0
-8 -4 -11 -10z"/>
<path d="M4360 6611 c0 -25 6 -27 13 -6 4 8 2 17 -3 20 -6 4 -10 -3 -10 -14z"/>
<path d="M4775 6560 c-3 -6 1 -7 9 -4 18 7 21 14 7 14 -6 0 -13 -4 -16 -10z"/>
<path d="M5210 6555 c0 -8 5 -15 10 -15 6 0 10 7 10 15 0 8 -4 15 -10 15 -5 0
-10 -7 -10 -15z"/>
<path d="M5282 6545 c6 -14 13 -24 14 -22 6 6 -9 47 -17 47 -5 0 -3 -11 3 -25z"/>
<path d="M4023 6537 c4 -10 7 -30 7 -43 0 -13 4 -24 9 -24 10 0 -3 68 -15 78
-4 4 -4 -1 -1 -11z"/>
<path d="M4516 6537 c3 -10 9 -15 12 -12 3 3 0 11 -7 18 -10 9 -11 8 -5 -6z"/>
<path d="M5310 6533 c0 -12 -3 -23 -7 -26 -5 -2 -2 -2 5 -1 7 2 15 -3 18 -11
4 -8 10 -15 16 -15 12 0 0 41 -18 60 -12 12 -14 12 -14 -7z"/>
<path d="M5700 6541 c0 -6 4 -12 8 -15 5 -3 9 1 9 9 0 8 -4 15 -9 15 -4 0 -8
-4 -8 -9z"/>
<path d="M4325 6520 c3 -5 8 -10 11 -10 2 0 4 5 4 10 0 6 -5 10 -11 10 -5 0
-7 -4 -4 -10z"/>
<path d="M4445 6521 c-3 -5 -2 -12 3 -15 5 -3 9 1 9 9 0 17 -3 19 -12 6z"/>
<path d="M5350 6521 c0 -6 4 -19 9 -29 26 -47 51 -111 60 -150 11 -50 26 -73
17 -27 -15 83 -52 189 -72 206 -10 8 -14 8 -14 0z"/>
<path d="M4630 6508 c0 -9 5 -20 10 -23 13 -8 13 5 0 25 -8 13 -10 13 -10 -2z"/>
<path d="M4120 6503 c0 -7 11 -25 25 -40 32 -36 32 -17 0 22 -13 17 -24 25
-25 18z"/>
<path d="M4570 6498 c0 -7 5 -20 10 -28 8 -11 9 -9 8 13 -2 26 -18 40 -18 15z"/>
<path d="M5390 6502 c0 -4 6 -17 14 -28 8 -11 17 -36 21 -57 4 -20 13 -53 20
-73 10 -31 14 -34 19 -18 10 31 -37 169 -60 178 -8 3 -14 2 -14 -2z"/>
<path d="M5435 6485 c4 -11 18 -49 31 -85 13 -36 28 -74 33 -85 5 -11 12 -37
16 -57 3 -21 10 -38 15 -38 5 0 11 -10 15 -22 11 -38 36 -100 66 -161 13 -26
25 -43 27 -37 2 5 -7 27 -20 47 -12 21 -22 39 -21 40 7 8 -11 64 -23 74 -8 6
-14 18 -14 25 0 8 -4 22 -9 32 -5 9 -17 46 -26 82 -9 36 -22 74 -29 85 -7 11
-18 37 -25 57 -7 20 -19 42 -28 50 -15 11 -16 11 -8 -7z"/>
<path d="M5790 6490 c0 -5 5 -10 11 -10 5 0 7 5 4 10 -3 6 -8 10 -11 10 -2 0
-4 -4 -4 -10z"/>
<path d="M5826 6483 c4 -19 2 -22 -13 -16 -15 6 -16 4 -5 -9 7 -8 10 -23 6
-31 -5 -15 82 -194 112 -228 8 -8 14 -18 14 -22 0 -16 73 -126 81 -121 5 3 6
-2 3 -10 -3 -9 -2 -16 4 -16 5 0 9 10 8 23 -1 12 -7 21 -15 19 -7 -1 -10 2 -6
8 6 9 -10 49 -24 60 -9 7 -73 130 -68 130 4 0 98 -154 126 -207 10 -19 15 -22
22 -12 5 9 3 17 -7 22 -8 5 -12 12 -9 16 2 5 -7 25 -20 46 -14 20 -37 60 -51
88 -15 29 -33 56 -40 60 -8 4 -14 14 -14 21 0 8 -7 16 -15 20 -13 4 -13 2 -5
-14 13 -24 13 -33 -1 -24 -6 3 -17 22 -25 41 -8 18 -18 32 -22 29 -4 -2 -9 5
-9 16 -1 12 -6 24 -10 27 -12 9 -16 61 -5 61 11 0 25 -27 27 -50 1 -22 27 -70
37 -70 13 0 9 15 -17 68 -14 28 -25 55 -25 61 0 6 -6 11 -14 11 -8 0 -17 6
-20 13 -3 6 -3 2 0 -10z"/>
<path d="M5470 6480 c0 -7 6 -21 13 -29 14 -16 43 -95 53 -141 17 -87 72 -206
87 -191 7 7 5 25 -10 58 -33 77 -51 125 -62 167 -17 64 0 32 34 -66 52 -152
77 -188 114 -169 18 10 21 8 27 -24 3 -19 11 -35 17 -35 6 0 8 -3 4 -6 -3 -4
3 -24 13 -45 11 -21 20 -45 20 -53 0 -7 7 -16 15 -20 13 -5 13 -1 -1 32 -9 20
-19 49 -24 63 -4 14 -15 40 -24 57 -9 18 -14 32 -10 32 4 0 1 7 -6 15 -29 35
-80 152 -60 140 4 -3 11 -16 14 -30 3 -13 19 -46 34 -72 16 -27 39 -76 52
-111 16 -45 26 -60 32 -50 7 9 8 7 4 -7 -3 -11 4 -36 14 -55 l19 -35 -5 40
c-7 62 -34 134 -55 148 -10 8 -16 17 -12 20 3 4 -8 35 -25 69 -17 35 -40 85
-51 111 -39 90 -21 63 35 -53 30 -63 60 -118 67 -122 6 -4 8 -10 4 -14 -4 -4
-1 -14 7 -23 7 -9 17 -28 22 -43 7 -21 13 -25 24 -18 12 7 -1 40 -73 182 -48
95 -87 178 -87 184 0 7 -7 15 -16 18 -13 5 -15 1 -10 -21 l6 -28 -15 26 c-13
25 -32 38 -62 45 -17 3 -26 -28 -11 -38 7 -4 10 -8 6 -8 -3 0 9 -39 28 -87 33
-85 43 -123 24 -93 -5 8 -17 38 -26 65 -25 74 -83 195 -95 195 -6 0 -3 -10 5
-22 9 -12 16 -29 16 -38 0 -14 -43 46 -45 62 0 4 -6 13 -12 20 -10 10 -13 9
-13 -2z m160 -117 c30 -81 31 -90 7 -38 -28 57 -43 104 -32 93 5 -5 16 -29 25
-55z m45 -214 c9 -17 14 -33 11 -36 -3 -3 -10 7 -16 22 -6 15 -13 32 -16 36
-3 5 -3 9 0 9 3 0 13 -14 21 -31z"/>
<path d="M4440 6471 c0 -6 -7 -8 -15 -5 -18 7 -20 -7 -2 -25 10 -11 10 -13 0
-7 -16 9 -18 -30 -3 -39 6 -3 10 -11 10 -16 0 -6 -4 -8 -9 -5 -14 9 -20 -16
-9 -37 5 -9 6 -23 2 -29 -5 -7 -3 -8 5 -4 7 5 10 15 6 25 -3 9 6 3 19 -14 14
-16 26 -34 26 -40 0 -5 5 -3 10 5 8 12 10 11 10 -7 0 -12 5 -25 10 -28 6 -4
10 -3 9 2 -4 20 2 27 12 13 8 -11 9 -7 5 18 -5 27 -3 32 14 32 12 0 20 -7 21
-17 0 -17 1 -17 7 -1 5 13 11 15 22 7 11 -8 12 -12 3 -16 -7 -2 -13 -12 -13
-20 0 -13 3 -13 15 -3 8 7 15 9 15 4 0 -4 6 1 14 11 8 11 11 26 8 35 -5 12 -3
13 10 3 12 -11 17 -9 25 10 6 12 7 31 3 42 -4 11 -3 23 3 26 6 4 5 13 -2 25
-9 17 -10 17 -11 2 0 -10 -3 -17 -7 -17 -21 3 -22 -3 -7 -26 18 -28 14 -41
-12 -31 -13 5 -14 9 -4 21 10 12 9 15 -4 15 -9 0 -16 4 -16 10 0 5 -10 -1 -23
-13 -13 -12 -21 -29 -19 -37 3 -12 2 -12 -6 -1 -7 9 -12 10 -16 2 -4 -6 -4
-11 1 -11 4 0 -3 -6 -17 -14 -26 -13 -52 -10 -29 5 20 12 17 32 -5 44 -11 6
-21 17 -23 25 -3 10 -1 9 7 -2 6 -10 20 -18 32 -18 15 0 18 -4 14 -16 -6 -15
-4 -15 11 -3 10 8 22 20 26 27 5 7 12 10 17 7 4 -3 6 4 3 16 -4 16 -8 17 -14
7 -7 -10 -9 -10 -9 2 -1 11 -6 8 -20 -9 l-20 -23 -6 29 c-3 16 -15 40 -26 53
l-20 25 17 -28 c9 -16 14 -32 10 -35 -3 -4 -10 0 -14 7 -6 8 -14 10 -22 5 -11
-6 -12 -5 -3 7 9 11 9 17 -2 27 -8 7 -14 8 -14 3z m7 -103 c-3 -8 -6 -5 -6 6
-1 11 2 17 5 13 3 -3 4 -12 1 -19z m21 -43 c-3 -3 -9 2 -12 12 -6 14 -5 15 5
6 7 -7 10 -15 7 -18z"/>
<path d="M5349 6478 c-5 -25 -3 -34 8 -46 7 -8 11 -18 8 -23 -4 -5 -1 -9 5 -9
6 0 8 10 4 28 -8 31 -23 61 -25 50z"/>
<path d="M4526 6461 c-4 -7 -5 -15 -2 -18 9 -9 19 4 14 18 -4 11 -6 11 -12 0z"/>
<path d="M4680 6450 c0 -11 2 -20 4 -20 2 0 6 9 9 20 3 11 1 20 -4 20 -5 0 -9
-9 -9 -20z"/>
<path d="M4115 6450 c3 -5 8 -10 11 -10 2 0 4 5 4 10 0 6 -5 10 -11 10 -5 0
-7 -4 -4 -10z"/>
<path d="M5896 6415 c20 -45 43 -75 56 -75 13 0 -27 72 -52 95 l-22 20 18 -40z"/>
<path d="M4372 6418 c5 -15 28 -23 28 -10 0 5 -7 13 -16 16 -10 4 -14 1 -12
-6z"/>
<path d="M5780 6412 c0 -13 11 -44 25 -70 14 -26 25 -52 25 -59 0 -6 3 -13 8
-15 4 -1 20 -29 36 -61 16 -31 32 -60 37 -63 11 -7 59 -102 59 -118 0 -7 9
-21 19 -30 15 -14 21 -15 27 -4 4 7 4 10 -1 6 -9 -9 -34 21 -35 41 0 11 4 9
15 -5 14 -18 14 -17 4 11 -11 31 -48 96 -60 105 -3 3 -37 64 -74 135 -76 145
-85 159 -85 127z"/>
<path d="M5940 6423 c1 -18 19 -35 29 -28 9 5 9 10 0 21 -12 15 -29 19 -29 7z"/>
<path d="M5706 6402 c-10 -17 34 -115 133 -297 42 -76 46 -80 49 -50 1 14 -14
49 -35 82 -20 31 -59 106 -88 167 -32 68 -54 105 -59 98z"/>
<path d="M5751 6363 c27 -66 47 -105 98 -193 24 -41 50 -90 58 -107 7 -18 18
-33 24 -33 5 0 8 -4 5 -8 -3 -5 8 -35 24 -68 16 -32 29 -52 30 -44 0 9 -8 26
-17 40 -9 13 -17 40 -19 59 -2 46 -26 102 -59 137 -14 15 -25 35 -25 45 0 10
-5 21 -11 25 -6 4 -26 40 -45 80 -29 63 -64 114 -79 114 -2 0 5 -21 16 -47z"/>
<path d="M4130 6384 c0 -9 -5 -12 -12 -8 -8 5 -9 2 -4 -11 4 -10 2 -21 -5 -25
-8 -6 -8 -9 0 -14 6 -4 11 -2 11 4 0 6 4 9 9 6 5 -3 9 10 9 29 0 19 -2 35 -4
35 -2 0 -4 -7 -4 -16z"/>
<path d="M4205 6390 c3 -5 8 -10 11 -10 2 0 4 5 4 10 0 6 -5 10 -11 10 -5 0
-7 -4 -4 -10z"/>
<path d="M4360 6361 l-25 -7 28 -6 c19 -4 27 -1 27 8 0 8 -1 14 -2 13 -2 -1
-14 -4 -28 -8z"/>
<path d="M4697 6345 c-4 -8 -2 -17 3 -20 6 -4 10 3 10 14 0 25 -6 27 -13 6z"/>
<path d="M4329 6330 c-8 -6 -7 -9 2 -13 8 -3 1 -6 -16 -6 -22 -1 -26 -4 -15
-10 8 -6 18 -7 22 -5 4 3 8 0 8 -5 0 -11 -19 -15 -52 -13 -29 3 -21 -7 15 -17
l32 -9 -35 -2 c-19 -1 -27 -4 -17 -7 21 -5 23 -23 2 -23 -8 0 -15 -5 -15 -11
0 -5 4 -8 9 -4 5 3 12 1 15 -4 4 -5 -8 -13 -26 -17 -32 -7 -33 -8 -8 -15 21
-6 18 -7 -17 -8 -23 -1 -44 3 -48 9 -11 17 -65 51 -65 41 0 -15 75 -60 113
-69 l32 -6 -35 -7 -35 -6 33 -8 c37 -9 26 -25 -16 -25 -35 0 -16 -20 21 -21
30 -2 30 -2 5 -6 -25 -4 -62 3 -113 22 -16 6 -16 4 4 -10 13 -10 44 -23 70
-30 25 -7 38 -14 29 -15 -17 -2 -30 -5 -45 -10 -5 -1 3 -6 17 -10 24 -8 23 -8
-8 -9 -40 -1 -34 -16 10 -26 20 -4 27 -9 18 -12 -43 -14 -45 -16 -20 -24 22
-8 21 -8 -8 -5 -18 1 -36 -2 -39 -7 -3 -6 -1 -7 4 -4 6 4 13 0 16 -7 3 -8 16
-17 29 -19 13 -2 4 -2 -19 0 -51 5 -55 -2 -10 -21 36 -16 22 -21 -18 -6 -17 7
-24 7 -20 0 3 -6 13 -10 21 -10 8 0 14 -4 14 -9 0 -5 8 -12 18 -14 12 -3 10
-5 -8 -7 -14 -1 -32 -2 -40 -1 -11 1 -11 -1 3 -9 9 -6 22 -8 27 -5 6 3 10 2
10 -4 0 -5 8 -12 18 -14 9 -2 2 -3 -15 -1 -18 1 -35 -2 -38 -7 -4 -5 -5 -9 -3
-9 2 0 21 -7 43 -15 27 -10 33 -14 18 -15 -12 0 -35 5 -50 12 -36 16 -79 48
-64 48 8 0 9 5 1 19 -8 16 -6 20 8 24 10 3 6 5 -11 6 -25 1 -27 -1 -16 -20 7
-14 8 -24 1 -28 -14 -8 79 -71 114 -77 16 -3 31 -7 33 -10 9 -9 -41 -4 -60 7
-11 5 -28 9 -37 7 -13 -3 -8 -9 16 -21 18 -10 37 -15 42 -12 6 3 10 1 10 -4 0
-6 12 -12 28 -12 17 -1 21 -3 9 -6 -10 -3 -39 2 -64 11 -26 9 -48 14 -50 12
-8 -8 31 -30 75 -42 29 -8 38 -13 22 -13 -14 0 -42 6 -63 13 -32 12 -36 12
-26 0 6 -8 18 -14 26 -14 8 0 21 -7 29 -15 14 -13 13 -15 -8 -16 l-23 0 24
-10 c34 -14 18 -23 -18 -11 -41 14 -40 -1 2 -22 17 -8 26 -16 19 -16 -7 0 -22
5 -33 10 -10 6 -19 7 -19 2 0 -8 60 -41 100 -56 8 -3 1 -4 -17 -3 -37 2 -45
-15 -11 -25 20 -5 21 -6 3 -7 -20 -2 -20 -2 -1 -16 20 -15 20 -15 0 -17 -10 0
-28 -1 -39 0 -17 1 -16 0 5 -13 21 -12 22 -14 6 -15 -28 0 -2 -28 32 -33 16
-2 11 -4 -11 -3 -22 1 -36 -3 -33 -9 2 -5 15 -9 30 -8 14 1 26 -2 26 -8 0 -5
9 -9 21 -9 11 0 26 -6 33 -13 17 -17 -4 -37 -36 -36 -17 1 -18 3 -5 6 30 8 20
32 -13 30 -16 -1 -30 -5 -30 -9 0 -5 4 -8 9 -8 5 0 8 -8 7 -17 0 -11 6 -18 19
-19 28 -2 75 -23 53 -23 -21 -1 -24 -17 -5 -25 17 -8 -43 1 -67 10 -14 5 -17
4 -12 -4 4 -7 15 -12 25 -12 9 0 26 -7 37 -16 18 -15 18 -15 -9 -11 -36 6 -23
-7 22 -22 36 -12 55 -6 31 9 -9 6 -10 10 -3 10 12 0 19 73 29 320 3 85 7 173
8 195 1 22 -1 45 -5 50 -10 13 1 65 13 65 5 0 6 6 1 13 -11 17 -11 137 -1 137
5 0 6 5 3 10 -4 6 -1 18 7 27 11 14 11 16 -1 8 -10 -5 -12 -4 -7 3 4 7 13 12
20 12 9 0 14 -19 15 -62 2 -85 11 -88 11 -4 0 59 -3 69 -20 73 -24 6 -17 22 8
19 10 -2 20 -15 23 -32 7 -29 7 -29 8 -3 1 26 -20 55 -31 43 -3 -3 -5 6 -4 20
1 24 32 44 34 22 0 -6 5 -24 10 -41 13 -37 14 -14 3 43 -5 24 -5 40 -1 35 5
-4 10 -19 13 -33 4 -23 4 -22 6 5 1 24 3 27 12 15 8 -11 9 -9 3 10 -4 14 -12
29 -18 33 -8 6 -8 10 2 14 15 6 16 30 0 39 -7 5 -9 2 -5 -9 3 -9 -1 -18 -10
-21 -10 -4 -13 -2 -10 8 3 7 1 18 -5 24 -6 6 1 11 21 14 18 3 28 0 24 -5 -3
-6 -1 -7 5 -3 16 10 15 29 -4 52 -15 19 -15 18 -11 -3 5 -21 3 -22 -16 -11
-12 7 -26 11 -31 10 -5 -2 -6 6 -3 18 3 11 1 18 -4 14 -5 -3 -9 -1 -9 4 0 10
-25 12 -41 2z m58 -132 c2 -18 0 -20 -7 -8 -12 18 -13 30 -2 30 4 0 9 -10 9
-22z m-127 -818 c0 -5 -5 -10 -11 -10 -5 0 -7 5 -4 10 3 6 8 10 11 10 2 0 4
-4 4 -10z"/>
<path d="M4116 6312 c-5 -9 12 -32 39 -52 l20 -15 -20 24 c-11 13 -19 25 -17
27 1 2 2 9 2 14 0 12 -17 13 -24 2z"/>
<path d="M5970 6283 c0 -10 9 -29 20 -43 11 -14 20 -28 20 -32 0 -15 64 -108
73 -108 6 0 7 -3 4 -7 -8 -7 11 -33 24 -33 18 0 8 26 -31 82 -22 32 -51 80
-66 108 -27 51 -44 64 -44 33z"/>
<path d="M4542 6270 c0 -14 2 -19 5 -12 2 6 2 18 0 25 -3 6 -5 1 -5 -13z"/>
<path d="M6063 6267 c7 -12 21 -36 33 -52 11 -17 24 -38 27 -47 4 -10 13 -18
22 -18 8 0 15 -4 15 -10 0 -5 4 -10 10 -10 13 0 34 41 24 49 -5 3 -18 24 -29
46 -20 37 -55 60 -55 35 0 -6 5 -8 12 -4 7 4 8 3 4 -4 -9 -14 41 -95 54 -87 6
3 7 -1 4 -10 -5 -13 -9 -12 -25 6 -11 12 -19 25 -19 28 0 3 -11 19 -25 34 -14
15 -23 27 -20 27 3 0 -4 9 -15 20 -26 26 -32 25 -17 -3z"/>
<path d="M6010 6274 c0 -2 16 -26 35 -53 19 -26 35 -53 35 -58 0 -9 12 -26 58
-83 12 -15 22 -33 22 -38 0 -6 4 -13 9 -16 17 -11 -2 39 -20 52 -10 7 -19 25
-21 40 -2 16 -8 26 -16 24 -8 -1 -11 2 -7 8 8 13 -14 52 -26 45 -8 -6 -13 8
-10 28 2 14 -28 51 -44 53 -8 1 -15 0 -15 -2z"/>
<path d="M6460 6271 c0 -6 4 -13 10 -16 6 -3 7 1 4 9 -7 18 -14 21 -14 7z"/>
<path d="M4561 6254 c0 -11 3 -14 6 -6 3 7 2 16 -1 19 -3 4 -6 -2 -5 -13z"/>
<path d="M5480 6261 c0 -5 5 -13 10 -16 6 -3 10 -2 10 4 0 5 -4 13 -10 16 -5
3 -10 2 -10 -4z"/>
<path d="M6155 6260 c3 -5 11 -10 16 -10 6 0 7 5 4 10 -3 6 -11 10 -16 10 -6
0 -7 -4 -4 -10z"/>
<path d="M4126 6245 c4 -8 10 -15 15 -15 4 0 17 -10 29 -22 11 -12 23 -19 26
-15 6 6 -55 66 -68 67 -4 0 -5 -7 -2 -15z"/>
<path d="M4693 6215 c0 -22 2 -30 4 -17 2 12 2 30 0 40 -3 9 -5 -1 -4 -23z"/>
<path d="M4070 6231 c0 -5 6 -14 14 -20 12 -10 13 -8 9 8 -5 21 -23 30 -23 12z"/>
<path d="M6187 6209 c10 -18 28 -36 41 -40 22 -8 22 -8 5 19 -24 37 -39 52
-53 52 -8 0 -5 -11 7 -31z"/>
<path d="M6414 6201 c22 -22 42 -38 45 -36 6 7 -39 54 -64 67 -11 6 -2 -8 19
-31z"/>
<path d="M6370 6210 c6 -11 15 -20 21 -20 6 0 8 -4 5 -8 -3 -5 2 -9 10 -9 10
0 6 9 -13 29 -32 33 -38 35 -23 8z"/>
<path d="M4494 6209 c-3 -6 -3 -13 0 -16 3 -4 6 -1 6 5 0 6 7 9 15 6 8 -4 15
-4 15 -1 0 11 -30 16 -36 6z"/>
<path d="M4741 6204 c0 -11 3 -14 6 -6 3 7 2 16 -1 19 -3 4 -6 -2 -5 -13z"/>
<path d="M6468 6189 c17 -16 32 -35 32 -40 0 -6 5 -7 11 -3 8 4 8 9 0 17 -6 6
-11 14 -11 18 0 9 52 6 68 -4 18 -12 15 8 -4 24 -9 7 -18 9 -22 3 -10 -13 -59
-11 -73 4 -7 6 -18 12 -23 12 -6 0 4 -14 22 -31z"/>
<path d="M4070 6198 c-1 -21 21 -58 31 -52 7 4 7 9 2 13 -5 3 -15 15 -21 26
-6 11 -12 17 -12 13z"/>
<path d="M6257 6176 c10 -13 19 -23 21 -21 5 5 -22 45 -31 45 -4 0 0 -11 10
-24z"/>
<path d="M4509 6153 c-3 -25 0 -44 6 -47 7 -2 9 10 7 33 -5 56 -9 60 -13 14z"/>
<path d="M4566 6177 c3 -10 9 -15 12 -12 3 3 0 11 -7 18 -10 9 -11 8 -5 -6z"/>
<path d="M4110 6176 c0 -2 7 -7 16 -10 8 -3 12 -2 9 4 -6 10 -25 14 -25 6z"/>
<path d="M6592 6160 c0 -14 2 -19 5 -12 2 6 2 18 0 25 -3 6 -5 1 -5 -13z"/>
<path d="M6621 6164 c0 -11 3 -14 6 -6 3 7 2 16 -1 19 -3 4 -6 -2 -5 -13z"/>
<path d="M4702 6135 c0 -58 9 -105 19 -105 5 0 9 8 9 18 0 14 2 15 10 2 7 -11
10 -7 10 17 0 33 -15 53 -23 31 -2 -7 -9 7 -15 32 l-10 45 0 -40z"/>
<path d="M6552 6156 c7 -8 15 -12 17 -11 5 6 -10 25 -20 25 -5 0 -4 -6 3 -14z"/>
<path d="M4481 6144 c0 -11 3 -14 6 -6 3 7 2 16 -1 19 -3 4 -6 -2 -5 -13z"/>
<path d="M6390 6140 c6 -11 13 -20 16 -20 2 0 0 9 -6 20 -6 11 -13 20 -16 20
-2 0 0 -9 6 -20z"/>
<path d="M4038 6133 c-5 -18 16 -66 40 -91 21 -23 13 4 -9 33 -14 17 -18 29
-11 34 7 4 6 12 -3 24 -13 18 -13 18 -17 0z"/>
<path d="M4150 6139 c0 -5 9 -9 20 -9 11 0 20 2 20 4 0 2 -9 6 -20 9 -11 3
-20 1 -20 -4z"/>
<path d="M4765 6140 c-3 -5 -1 -18 4 -27 9 -15 10 -14 9 10 -3 30 -4 32 -13
17z"/>
<path d="M4873 6116 c2 -30 27 -50 27 -22 0 9 -4 16 -9 16 -5 0 -12 8 -15 18
-2 9 -4 4 -3 -12z"/>
<path d="M4633 6123 c-16 -6 -17 -43 -2 -43 6 0 8 7 5 16 -3 8 -2 12 4 9 6 -3
10 -18 10 -33 0 -27 15 -60 23 -52 10 11 -28 107 -40 103z"/>
<path d="M4851 6114 c0 -11 3 -14 6 -6 3 7 2 16 -1 19 -3 4 -6 -2 -5 -13z"/>
<path d="M6202 6119 c2 -6 8 -10 13 -10 5 0 11 4 13 10 2 6 -4 11 -13 11 -9 0
-15 -5 -13 -11z"/>
<path d="M6260 6115 c0 -8 7 -15 16 -15 14 0 14 3 4 15 -7 8 -14 15 -16 15 -2
0 -4 -7 -4 -15z"/>
<path d="M4135 6110 c3 -5 11 -10 16 -10 6 0 7 5 4 10 -3 6 -11 10 -16 10 -6
0 -7 -4 -4 -10z"/>
<path d="M6160 6116 c0 -2 7 -6 15 -10 8 -3 15 -1 15 4 0 6 -7 10 -15 10 -8 0
-15 -2 -15 -4z"/>
<path d="M4501 6084 c0 -11 3 -14 6 -6 3 7 2 16 -1 19 -3 4 -6 -2 -5 -13z"/>
<path d="M4567 6025 c5 -65 9 -78 24 -70 14 9 11 52 -5 58 -8 3 -17 21 -19 39
-2 18 -2 6 0 -27z m20 -57 c-3 -8 -6 -5 -6 6 -1 11 2 17 5 13 3 -3 4 -12 1
-19z"/>
<path d="M6190 6078 c0 -18 18 -34 28 -24 3 4 -2 14 -11 23 -16 16 -17 16 -17
1z"/>
<path d="M4582 6050 c0 -14 2 -19 5 -12 2 6 2 18 0 25 -3 6 -5 1 -5 -13z"/>
<path d="M4851 6054 c0 -11 3 -14 6 -6 3 7 2 16 -1 19 -3 4 -6 -2 -5 -13z"/>
<path d="M5620 6066 c0 -2 7 -9 15 -16 9 -7 15 -8 15 -2 0 5 -7 12 -15 16 -8
3 -15 4 -15 2z"/>
<path d="M4683 6038 c14 -55 19 -113 8 -98 -8 12 -10 8 -8 -17 1 -18 3 -33 4
-33 1 0 8 13 16 29 11 23 12 41 5 85 -6 31 -15 56 -20 56 -6 0 -8 -10 -5 -22z"/>
<path d="M6126 6044 c-4 -10 -1 -21 6 -25 16 -10 25 18 10 33 -6 6 -12 3 -16
-8z"/>
<path d="M5090 6044 c0 -6 7 -19 15 -30 8 -10 14 -14 14 -9 0 6 -6 19 -14 29
-8 11 -15 15 -15 10z"/>
<path d="M4050 6030 c0 -5 5 -10 11 -10 5 0 7 5 4 10 -3 6 -8 10 -11 10 -2 0
-4 -4 -4 -10z"/>
<path d="M4432 6010 c0 -19 2 -27 5 -17 2 9 2 25 0 35 -3 9 -5 1 -5 -18z"/>
<path d="M4747 6009 c4 -13 8 -18 11 -10 2 7 -1 18 -6 23 -8 8 -9 4 -5 -13z"/>
<path d="M5061 6000 c6 -16 15 -30 19 -30 5 0 4 14 -1 30 -6 17 -15 30 -19 30
-5 0 -4 -13 1 -30z"/>
<path d="M4035 6010 c15 -28 38 -50 52 -50 12 0 12 2 1 13 -39 35 -61 51 -53
37z"/>
<path d="M4451 6004 c0 -11 3 -14 6 -6 3 7 2 16 -1 19 -3 4 -6 -2 -5 -13z"/>
<path d="M5897 6013 c-4 -3 -7 -13 -6 -22 0 -12 3 -11 9 4 8 18 9 17 9 -6 1
-15 7 -29 15 -32 11 -5 12 1 3 29 -10 34 -17 40 -30 27z"/>
<path d="M4089 5989 c13 -11 26 -17 29 -14 7 6 -29 34 -43 34 -5 0 1 -9 14
-20z"/>
<path d="M4731 5993 c-1 -12 4 -25 9 -28 12 -7 12 2 0 30 -8 19 -9 19 -9 -2z"/>
<path d="M5840 6004 c0 -17 23 -44 32 -38 6 4 9 1 6 -6 -2 -8 4 -22 14 -32 10
-10 18 -27 18 -37 0 -26 27 -35 35 -10 8 23 -2 59 -17 59 -5 0 -7 -7 -4 -15
17 -42 16 -47 -3 -17 -12 18 -21 37 -21 42 0 5 -10 16 -22 24 -12 9 -17 16
-10 16 6 0 12 5 12 10 0 6 -9 10 -20 10 -11 0 -20 -3 -20 -6z"/>
<path d="M4950 5981 c0 -11 4 -22 9 -25 4 -3 6 6 3 19 -5 30 -12 33 -12 6z"/>
<path d="M4990 5990 c0 -20 30 -83 37 -77 3 4 0 13 -7 22 -7 8 -10 20 -7 27 2
7 -2 19 -9 26 -9 8 -14 9 -14 2z"/>
<path d="M5030 5988 c0 -7 5 -20 10 -28 8 -12 10 -11 10 7 0 12 -4 25 -10 28
-5 3 -10 0 -10 -7z"/>
<path d="M5677 5981 c-4 -17 -3 -21 5 -13 5 5 8 16 6 23 -3 8 -7 3 -11 -10z"/>
<path d="M4921 5970 c14 -31 19 -36 19 -24 0 6 -7 19 -16 30 -14 18 -14 18 -3
-6z"/>
<path d="M6160 5981 c0 -6 4 -13 10 -16 6 -3 7 1 4 9 -7 18 -14 21 -14 7z"/>
<path d="M4130 5970 c0 -5 5 -10 11 -10 5 0 7 5 4 10 -3 6 -8 10 -11 10 -2 0
-4 -4 -4 -10z"/>
<path d="M5718 5975 c-3 -6 0 -16 8 -23 10 -9 14 -9 14 -1 0 6 7 9 14 6 10 -4
13 -1 9 9 -4 11 -9 12 -18 4 -9 -8 -14 -7 -17 2 -3 7 -7 8 -10 3z"/>
<path d="M6660 5971 c0 -5 7 -15 17 -22 15 -13 15 -12 4 9 -12 23 -21 28 -21
13z"/>
<path d="M4636 5954 c-9 -23 -7 -44 3 -44 5 0 7 10 3 22 -3 14 -2 19 6 14 7
-4 12 -3 12 3 0 17 -18 21 -24 5z"/>
<path d="M4339 5938 c0 -13 -2 -33 -3 -45 -3 -27 0 -28 20 -8 10 10 11 15 4
15 -8 0 -10 10 -8 25 3 14 1 28 -3 31 -5 3 -9 -5 -10 -18z"/>
<path d="M4392 5940 c0 -14 2 -19 5 -12 2 6 2 18 0 25 -3 6 -5 1 -5 -13z"/>
<path d="M4483 5915 c0 -22 2 -30 4 -17 2 12 2 30 0 40 -3 9 -5 -1 -4 -23z"/>
<path d="M4731 5928 c-1 -16 4 -28 9 -28 12 0 12 8 0 35 -8 18 -9 17 -9 -7z"/>
<path d="M4020 5922 c0 -5 7 -15 15 -22 8 -7 15 -8 15 -2 0 5 -7 15 -15 22 -8
7 -15 8 -15 2z"/>
<path d="M4100 5921 c0 -5 5 -13 10 -16 6 -3 10 -2 10 4 0 5 -4 13 -10 16 -5
3 -10 2 -10 -4z"/>
<path d="M4825 5920 c-3 -5 -1 -10 4 -10 6 0 11 5 11 10 0 6 -2 10 -4 10 -3 0
-8 -4 -11 -10z"/>
<path d="M4946 5908 c8 -28 34 -66 34 -52 0 6 -5 25 -11 43 -12 35 -34 44 -23
9z"/>
<path d="M6770 5916 c0 -2 7 -7 16 -10 8 -3 12 -2 9 4 -6 10 -25 14 -25 6z"/>
<path d="M4711 5894 c0 -11 3 -14 6 -6 3 7 2 16 -1 19 -3 4 -6 -2 -5 -13z"/>
<path d="M5810 5895 c0 -8 4 -15 10 -15 5 0 7 7 4 15 -4 8 -8 15 -10 15 -2 0
-4 -7 -4 -15z"/>
<path d="M6002 5894 c-7 -8 -8 -14 -3 -14 10 0 25 19 20 25 -2 1 -10 -3 -17
-11z"/>
<path d="M6035 5900 c3 -5 8 -10 11 -10 2 0 4 5 4 10 0 6 -5 10 -11 10 -5 0
-7 -4 -4 -10z"/>
<path d="M4090 5885 c7 -8 17 -15 22 -15 6 0 5 7 -2 15 -7 8 -17 15 -22 15 -6
0 -5 -7 2 -15z"/>
<path d="M5025 5890 c3 -5 8 -10 11 -10 2 0 4 5 4 10 0 6 -5 10 -11 10 -5 0
-7 -4 -4 -10z"/>
<path d="M6720 5891 c0 -6 4 -13 10 -16 6 -3 7 1 4 9 -7 18 -14 21 -14 7z"/>
<path d="M6840 5891 c0 -5 5 -13 10 -16 6 -3 10 -2 10 4 0 5 -4 13 -10 16 -5
3 -10 2 -10 -4z"/>
<path d="M6750 5881 c0 -5 7 -12 16 -15 14 -5 15 -4 4 9 -14 17 -20 19 -20 6z"/>
<path d="M6940 5881 c0 -6 4 -13 10 -16 6 -3 7 1 4 9 -7 18 -14 21 -14 7z"/>
<path d="M5016 5867 c3 -10 9 -15 12 -12 3 3 0 11 -7 18 -10 9 -11 8 -5 -6z"/>
<path d="M6670 5874 c0 -18 37 -47 45 -35 3 6 -2 14 -12 18 -10 4 -21 11 -25
17 -6 8 -8 8 -8 0z"/>
<path d="M4386 5861 c-3 -5 3 -11 14 -14 15 -4 20 -14 21 -39 0 -18 5 -42 10
-53 7 -15 8 -10 4 20 -2 22 -5 48 -5 57 0 20 -36 43 -44 29z"/>
<path d="M4020 5856 c0 -2 8 -10 18 -17 15 -13 16 -12 3 4 -13 16 -21 21 -21
13z"/>
<path d="M4668 5830 c2 -17 8 -28 12 -25 9 6 2 43 -9 50 -4 2 -5 -9 -3 -25z"/>
<path d="M4945 5850 c3 -5 8 -10 11 -10 2 0 4 5 4 10 0 6 -5 10 -11 10 -5 0
-7 -4 -4 -10z"/>
<path d="M6650 5850 c0 -5 5 -10 11 -10 5 0 7 5 4 10 -3 6 -8 10 -11 10 -2 0
-4 -4 -4 -10z"/>
<path d="M6870 5850 c0 -5 5 -10 11 -10 5 0 7 5 4 10 -3 6 -8 10 -11 10 -2 0
-4 -4 -4 -10z"/>
<path d="M4398 5795 c-2 -25 0 -45 4 -45 5 0 8 20 8 45 0 25 -2 45 -4 45 -2 0
-6 -20 -8 -45z"/>
<path d="M4652 5820 c0 -14 2 -19 5 -12 2 6 2 18 0 25 -3 6 -5 1 -5 -13z"/>
<path d="M6766 5827 c3 -10 9 -15 12 -12 3 3 0 11 -7 18 -10 9 -11 8 -5 -6z"/>
<path d="M4379 5802 c-3 -20 -2 -29 4 -23 5 5 7 19 5 32 -3 20 -5 19 -9 -9z"/>
<path d="M4494 5791 c4 -24 11 -51 16 -60 8 -12 9 -9 6 14 -2 17 -5 30 -6 30
-1 0 -3 10 -4 22 -2 13 -6 26 -11 30 -4 5 -5 -12 -1 -36z"/>
<path d="M4446 5812 c-2 -4 -1 -14 5 -22 7 -12 9 -10 9 8 0 23 -5 28 -14 14z"/>
<path d="M6882 5806 c7 -8 15 -12 17 -11 5 6 -10 25 -20 25 -5 0 -4 -6 3 -14z"/>
<path d="M4477 5765 c6 -53 9 -62 19 -53 3 4 -1 28 -10 55 l-15 48 6 -50z"/>
<path d="M5041 5784 c0 -11 3 -14 6 -6 3 7 2 16 -1 19 -3 4 -6 -2 -5 -13z"/>
<path d="M6690 5796 c0 -2 8 -10 18 -17 15 -13 16 -12 3 4 -13 16 -21 21 -21
13z"/>
<path d="M4064 5781 c7 -11 46 -35 46 -28 0 3 -12 12 -26 22 -15 9 -23 12 -20
6z"/>
<path d="M6740 5769 c0 -5 4 -8 9 -5 5 4 12 0 14 -6 3 -8 6 -6 6 5 1 9 -6 17
-14 17 -8 0 -15 -5 -15 -11z"/>
<path d="M6817 5759 c4 -13 8 -18 11 -10 2 7 -1 18 -6 23 -8 8 -9 4 -5 -13z"/>
<path d="M4872 5729 c-1 -38 1 -41 10 -21 8 15 8 29 1 44 -8 19 -10 15 -11
-23z"/>
<path d="M4072 5734 c10 -10 20 -15 24 -12 3 4 -5 12 -18 18 -22 12 -22 12 -6
-6z"/>
<path d="M4414 5717 c1 -15 6 -30 9 -34 11 -10 8 30 -3 47 -7 11 -8 8 -6 -13z"/>
<path d="M6781 5724 c0 -11 3 -14 6 -6 3 7 2 16 -1 19 -3 4 -6 -2 -5 -13z"/>
<path d="M4461 5714 c0 -11 3 -14 6 -6 3 7 2 16 -1 19 -3 4 -6 -2 -5 -13z"/>
<path d="M4440 5706 c0 -8 4 -17 9 -20 5 -4 7 3 4 14 -6 23 -13 26 -13 6z"/>
<path d="M4910 5709 c0 -5 5 -7 10 -4 6 3 10 8 10 11 0 2 -4 4 -10 4 -5 0 -10
-5 -10 -11z"/>
<path d="M5196 5694 c-4 -10 -2 -13 6 -8 8 5 9 2 5 -9 -3 -10 -2 -17 4 -17 6
0 8 -9 4 -20 -4 -14 -2 -20 9 -20 13 0 13 5 -1 45 -17 50 -18 52 -27 29z"/>
<path d="M5284 5670 c7 -19 16 -42 19 -50 3 -9 6 -5 6 10 0 14 -8 36 -19 50
l-20 25 14 -35z"/>
<path d="M5086 5675 c4 -8 8 -15 10 -15 2 0 4 7 4 15 0 8 -4 15 -10 15 -5 0
-7 -7 -4 -15z"/>
<path d="M5166 5677 c3 -10 9 -15 12 -12 3 3 0 11 -7 18 -10 9 -11 8 -5 -6z"/>
<path d="M5230 5684 c0 -11 40 -47 46 -41 2 2 -7 14 -21 27 -14 13 -25 19 -25
14z"/>
<path d="M6660 5686 c0 -2 7 -7 16 -10 8 -3 12 -2 9 4 -6 10 -25 14 -25 6z"/>
<path d="M4812 5650 c0 -14 2 -19 5 -12 2 6 2 18 0 25 -3 6 -5 1 -5 -13z"/>
<path d="M4927 5649 c4 -13 8 -18 11 -10 2 7 -1 18 -6 23 -8 8 -9 4 -5 -13z"/>
<path d="M4094 5645 c23 -18 14 -20 -17 -4 l-22 11 22 -22 c19 -20 23 -21 36
-8 13 13 13 16 -4 26 -27 17 -38 14 -15 -3z"/>
<path d="M4431 5644 c0 -11 3 -14 6 -6 3 7 2 16 -1 19 -3 4 -6 -2 -5 -13z"/>
<path d="M4830 5635 c0 -14 5 -25 10 -25 6 0 10 11 10 25 0 14 -4 25 -10 25
-5 0 -10 -11 -10 -25z"/>
<path d="M4980 5626 c0 -8 -3 -23 -7 -33 -6 -17 -6 -17 10 -1 19 19 22 34 7
43 -5 3 -10 0 -10 -9z"/>
<path d="M5263 5606 c14 -29 35 -30 30 -1 -3 11 -13 21 -22 22 -16 1 -17 -2
-8 -21z"/>
<path d="M4890 5603 c0 -10 4 -14 8 -8 4 6 11 13 16 18 5 4 2 7 -7 7 -10 0
-17 -8 -17 -17z"/>
<path d="M4811 5584 c0 -11 3 -14 6 -6 3 7 2 16 -1 19 -3 4 -6 -2 -5 -13z"/>
<path d="M4837 5587 c-3 -8 -1 -20 4 -28 6 -10 9 -7 9 14 0 29 -5 35 -13 14z"/>
<path d="M4927 5573 c10 -16 23 -34 30 -41 11 -11 13 -11 13 2 0 9 -5 16 -10
16 -6 0 -16 11 -22 25 -6 14 -15 25 -20 25 -5 0 -1 -12 9 -27z"/>
<path d="M5361 5585 c0 -5 6 -21 14 -35 8 -14 14 -20 14 -15 0 6 -6 21 -14 35
-8 14 -14 21 -14 15z"/>
<path d="M5210 5569 c0 -8 7 -24 15 -35 19 -25 19 -14 0 22 -8 16 -15 22 -15
13z"/>
<path d="M5182 5550 c0 -14 2 -19 5 -12 2 6 2 18 0 25 -3 6 -5 1 -5 -13z"/>
<path d="M5261 5554 c0 -11 3 -14 6 -6 3 7 2 16 -1 19 -3 4 -6 -2 -5 -13z"/>
<path d="M5816 5557 c3 -10 9 -15 12 -12 3 3 0 11 -7 18 -10 9 -11 8 -5 -6z"/>
<path d="M4090 5552 c0 -7 17 -18 63 -40 4 -2 7 1 7 6 0 4 -16 16 -35 25 -19
9 -35 13 -35 9z"/>
<path d="M4744 5534 c3 -9 6 -31 6 -50 0 -34 20 -50 20 -16 1 15 2 15 15 -2 8
-11 15 -15 15 -9 0 6 -6 16 -14 22 -8 7 -18 26 -21 42 -4 16 -11 29 -17 29 -6
0 -7 -7 -4 -16z"/>
<path d="M4880 5528 c0 -22 16 -24 24 -2 8 21 8 21 -9 21 -8 0 -15 -9 -15 -19z"/>
<path d="M5342 5530 c0 -8 3 -24 7 -34 7 -18 8 -18 14 -3 3 9 2 17 -3 17 -5 0
-11 8 -13 18 -3 11 -5 12 -5 2z"/>
<path d="M4109 5506 c25 -27 41 -33 41 -16 0 5 -15 17 -32 26 l-33 17 24 -27z"/>
<path d="M4655 5521 c-3 -5 -2 -12 3 -15 5 -3 9 1 9 9 0 17 -3 19 -12 6z"/>
<path d="M4680 5525 c0 -5 5 -17 10 -25 5 -8 10 -10 10 -5 0 6 -5 17 -10 25
-5 8 -10 11 -10 5z"/>
<path d="M4933 5505 c-6 -14 -7 -22 -2 -19 6 3 15 1 22 -4 7 -5 23 -12 37 -15
24 -6 24 -5 6 8 -11 8 -25 15 -32 15 -7 0 -14 9 -16 20 -3 18 -4 18 -15 -5z"/>
<path d="M5315 5519 c-4 -5 -4 -22 0 -36 5 -21 9 -23 18 -13 9 9 9 14 1 17 -7
2 -10 13 -7 23 6 21 -2 27 -12 9z"/>
<path d="M4631 5494 c0 -11 3 -14 6 -6 3 7 2 16 -1 19 -3 4 -6 -2 -5 -13z"/>
<path d="M4710 5493 c0 -10 5 -25 11 -33 9 -13 10 -12 5 3 -3 9 -1 17 4 17 6
0 10 7 10 15 0 8 -7 15 -15 15 -8 0 -15 -8 -15 -17z"/>
<path d="M5200 5505 c0 -5 5 -17 10 -25 5 -8 10 -10 10 -5 0 6 -5 17 -10 25
-5 8 -10 11 -10 5z"/>
<path d="M5251 5480 c0 -8 4 -22 9 -30 12 -18 12 -2 0 25 -6 13 -9 15 -9 5z"/>
<path d="M5560 5481 c0 -6 4 -13 10 -16 6 -3 7 1 4 9 -7 18 -14 21 -14 7z"/>
<path d="M5640 5481 c0 -5 5 -13 10 -16 6 -3 10 -2 10 4 0 5 -4 13 -10 16 -5
3 -10 2 -10 -4z"/>
<path d="M4685 5469 c-4 -6 -5 -12 -2 -15 2 -3 7 2 10 11 7 17 1 20 -8 4z"/>
<path d="M4861 5464 c0 -11 3 -14 6 -6 3 7 2 16 -1 19 -3 4 -6 -2 -5 -13z"/>
<path d="M5296 5467 c3 -10 9 -15 12 -12 3 3 0 11 -7 18 -10 9 -11 8 -5 -6z"/>
<path d="M5370 5470 c-9 -6 -10 -10 -3 -10 6 0 15 5 18 10 8 12 4 12 -15 0z"/>
<path d="M5710 5470 c-13 -8 -13 -11 1 -22 9 -7 23 -24 33 -38 9 -13 16 -20
16 -14 0 6 -3 14 -7 18 -5 4 -8 11 -9 14 0 4 -5 17 -10 29 -7 16 -13 20 -24
13z"/>
<path d="M5750 5454 c15 -39 31 -66 36 -61 7 6 -29 87 -38 87 -4 0 -3 -12 2
-26z"/>
<path d="M4812 5450 c0 -14 2 -19 5 -12 2 6 2 18 0 25 -3 6 -5 1 -5 -13z"/>
<path d="M4950 5453 c13 -6 13 -43 0 -43 -5 0 -10 -5 -10 -11 0 -8 4 -9 13 0
8 6 17 8 20 5 3 -3 2 6 -2 22 -4 15 -13 29 -19 30 -7 1 -8 0 -2 -3z"/>
<path d="M4981 5444 c0 -11 3 -14 6 -6 3 7 2 16 -1 19 -3 4 -6 -2 -5 -13z"/>
<path d="M5226 5445 c27 -83 45 -129 70 -178 8 -16 14 -36 14 -45 -1 -16 -2
-15 -14 1 -7 9 -17 17 -21 17 -4 0 -2 -6 4 -13 6 -8 7 -17 3 -22 -4 -4 3 -5
16 -2 16 4 25 0 29 -11 4 -9 15 -30 26 -45 11 -16 20 -39 20 -53 0 -13 3 -24
7 -24 11 0 21 -38 25 -85 l2 -40 -9 35 c-15 55 -96 212 -103 200 -3 -5 -1 -10
4 -10 6 0 11 -5 11 -11 0 -5 12 -36 27 -67 15 -31 28 -70 30 -85 2 -16 8 -37
13 -47 6 -11 10 -23 9 -27 -4 -25 3 -43 16 -43 11 0 14 7 10 28 -5 23 -4 22
11 -8 17 -34 18 -34 22 -10 2 13 -1 26 -7 28 -6 2 -11 19 -11 37 0 40 -6 57
-88 235 -21 47 -45 100 -53 119 -20 49 -71 150 -63 126z"/>
<path d="M5580 5443 c0 -4 5 -15 10 -23 8 -13 10 -13 10 2 0 9 -4 20 -10 23
-5 3 -10 3 -10 -2z"/>
<path d="M4121 5424 c0 -11 3 -14 6 -6 3 7 2 16 -1 19 -3 4 -6 -2 -5 -13z"/>
<path d="M4790 5429 c0 -5 -4 -7 -10 -4 -6 3 -10 -4 -9 -17 0 -13 3 -17 6 -9
5 11 7 11 14 0 6 -10 9 -6 9 14 0 15 -2 27 -5 27 -3 0 -5 -5 -5 -11z"/>
<path d="M5308 5424 c-3 -12 1 -36 8 -54 21 -49 15 -61 -6 -12 -11 23 -22 42
-24 42 -11 0 8 -66 22 -76 8 -6 12 -16 8 -22 -3 -6 0 -16 7 -24 8 -7 17 -29
20 -48 4 -19 16 -43 27 -55 19 -20 20 -23 20 -50 0 -8 5 -15 10 -15 15 0 12
31 -5 64 -19 37 -19 39 4 19 11 -9 18 -20 15 -24 -7 -11 24 -69 36 -69 16 0
11 16 -10 35 -12 10 -18 25 -16 32 6 15 -18 76 -26 68 -3 -3 -8 12 -12 34 -4
26 -13 44 -27 51 -12 7 -18 18 -15 26 3 7 -3 33 -13 56 -15 35 -18 39 -23 22z
m52 -150 c11 -26 20 -49 20 -53 -1 -8 -49 81 -50 92 -1 18 11 3 30 -39z"/>
<path d="M4630 5414 c0 -8 5 -12 10 -9 6 4 8 11 5 16 -9 14 -15 11 -15 -7z"/>
<path d="M4671 5414 c0 -11 3 -14 6 -6 3 7 2 16 -1 19 -3 4 -6 -2 -5 -13z"/>
<path d="M5335 5420 c3 -5 8 -10 11 -10 2 0 4 5 4 10 0 6 -5 10 -11 10 -5 0
-7 -4 -4 -10z"/>
<path d="M5005 5394 c8 -15 12 -31 10 -35 -3 -4 2 -10 11 -13 10 -4 13 -2 9 7
-4 6 3 1 14 -12 23 -26 20 -41 -9 -41 -13 0 -17 5 -14 15 7 16 -11 21 -21 5
-3 -5 -13 -6 -23 -3 -14 6 -15 4 -4 -9 10 -13 10 -18 1 -24 -8 -5 -10 -3 -5 7
4 8 0 5 -8 -5 -9 -11 -16 -25 -17 -30 0 -6 -5 0 -11 14 -11 24 -11 24 -17 -15
-4 -22 -9 -44 -13 -50 -3 -5 -2 -19 3 -30 8 -19 8 -19 15 3 5 18 9 20 16 10 5
-8 6 -3 2 14 -5 25 -4 27 23 25 21 -2 29 -8 33 -27 7 -34 0 -81 -11 -74 -6 3
-8 -5 -5 -19 5 -29 -3 -44 -31 -54 -19 -7 -20 -10 -7 -27 12 -17 14 -17 14 -4
0 9 5 20 12 24 7 4 8 3 4 -4 -4 -7 -1 -12 7 -12 7 0 19 -11 25 -25 6 -14 16
-25 21 -25 5 0 11 11 13 25 3 15 1 25 -7 25 -13 0 -14 28 -2 48 6 8 3 10 -7 6
-11 -4 -14 1 -11 18 10 66 24 109 35 103 5 -3 12 0 16 6 4 7 3 9 -4 5 -6 -3
-13 -2 -17 4 -3 5 -2 10 3 10 5 0 8 8 8 18 -1 9 4 18 9 20 6 1 10 -2 10 -7 0
-5 3 -12 6 -15 3 -3 5 7 5 23 0 22 -3 28 -15 24 -13 -5 -14 -3 -3 8 14 15 17
63 2 54 -6 -3 -7 1 -4 10 4 11 2 14 -9 9 -8 -3 -21 3 -28 13 -24 33 -40 37
-24 7z"/>
<path d="M5357 5408 c-7 -19 12 -88 25 -88 4 0 8 -7 8 -16 0 -8 4 -12 10 -9 5
3 7 0 4 -9 -5 -14 18 -70 34 -80 10 -6 -11 81 -26 110 -5 11 -18 39 -29 63
-14 32 -21 40 -26 29z"/>
<path d="M5394 5399 c3 -14 19 -55 35 -90 21 -46 28 -55 24 -32 -3 18 -19 58
-35 90 -16 32 -27 46 -24 32z"/>
<path d="M4832 5390 c0 -14 2 -19 5 -12 2 6 2 18 0 25 -3 6 -5 1 -5 -13z"/>
<path d="M5912 5398 c2 -6 10 -14 16 -16 7 -2 10 2 6 12 -7 18 -28 22 -22 4z"/>
<path d="M4112 5393 c-10 -4 -10 -8 -1 -19 6 -8 16 -14 21 -14 7 0 6 5 -1 13
-6 8 -8 17 -4 20 7 8 4 8 -15 0z"/>
<path d="M5540 5390 c0 -5 5 -10 11 -10 5 0 7 5 4 10 -3 6 -8 10 -11 10 -2 0
-4 -4 -4 -10z"/>
<path d="M5440 5378 c0 -7 7 -22 15 -32 13 -18 14 -17 12 12 -2 30 -27 48 -27
20z"/>
<path d="M5842 5359 c6 -16 12 -29 13 -27 6 6 -8 58 -16 58 -4 0 -3 -14 3 -31z"/>
<path d="M4768 5352 c3 -15 7 -21 10 -14 2 6 8 10 13 6 5 -3 9 -1 9 3 0 5 -8
13 -18 20 -17 10 -18 8 -14 -15z"/>
<path d="M4990 5370 c0 -5 5 -10 11 -10 5 0 7 5 4 10 -3 6 -8 10 -11 10 -2 0
-4 -4 -4 -10z"/>
<path d="M5795 5344 c8 -20 15 -42 15 -49 0 -7 7 -30 17 -51 9 -22 17 -50 19
-63 4 -31 13 -39 24 -21 12 20 2 56 -27 98 -20 30 -28 59 -24 85 0 4 -3 7 -9
7 -5 0 -10 7 -10 15 0 8 -5 15 -10 15 -6 0 -4 -15 5 -36z"/>
<path d="M4630 5341 c0 -16 5 -33 11 -36 6 -4 8 -13 5 -21 -3 -7 -1 -16 5 -19
5 -4 9 -24 7 -46 -2 -38 11 -66 19 -42 2 7 11 9 19 6 14 -5 14 0 -2 45 -6 14
-8 13 -14 -8 -5 -19 -8 -11 -14 37 -4 34 -12 65 -17 69 -6 3 -8 12 -5 20 3 7
1 16 -4 19 -6 4 -10 -7 -10 -24z"/>
<path d="M4890 5360 c0 -6 7 -10 15 -10 8 0 15 2 15 4 0 2 -7 6 -15 10 -8 3
-15 1 -15 -4z"/>
<path d="M4945 5359 c-11 -17 1 -21 15 -4 8 9 8 15 2 15 -6 0 -14 -5 -17 -11z"/>
<path d="M5720 5353 c0 -19 42 -148 51 -157 14 -15 11 -3 -17 81 -26 78 -34
96 -34 76z"/>
<path d="M4680 5331 c0 -6 4 -13 10 -16 6 -3 7 1 4 9 -7 18 -14 21 -14 7z"/>
<path d="M4740 5330 c0 -5 5 -10 10 -10 6 0 10 5 10 10 0 6 -4 10 -10 10 -5 0
-10 -4 -10 -10z"/>
<path d="M4883 5324 c-3 -8 -1 -20 4 -25 7 -7 11 -2 11 15 0 29 -6 33 -15 10z"/>
<path d="M5750 5329 c0 -5 5 -9 11 -9 5 0 7 -6 3 -12 -5 -9 -2 -9 9 1 21 17
21 18 -3 24 -11 3 -20 1 -20 -4z"/>
<path d="M4592 5294 c-7 -8 -8 -14 -3 -14 10 0 25 19 20 25 -2 1 -10 -3 -17
-11z"/>
<path d="M5576 5295 c4 -8 10 -15 15 -15 4 0 6 7 3 15 -4 8 -10 15 -15 15 -4
0 -6 -7 -3 -15z"/>
<path d="M4726 5275 c8 -37 14 -45 14 -19 0 10 -5 26 -10 34 -8 11 -9 7 -4
-15z"/>
<path d="M5860 5291 c0 -5 5 -13 10 -16 6 -3 10 -2 10 4 0 5 -4 13 -10 16 -5
3 -10 2 -10 -4z"/>
<path d="M4165 5280 c3 -5 11 -10 16 -10 6 0 7 5 4 10 -3 6 -11 10 -16 10 -6
0 -7 -4 -4 -10z"/>
<path d="M4522 5265 c0 -16 2 -22 5 -12 2 9 2 23 0 30 -3 6 -5 -1 -5 -18z"/>
<path d="M4820 5280 c0 -5 5 -10 10 -10 6 0 10 5 10 10 0 6 -4 10 -10 10 -5 0
-10 -4 -10 -10z"/>
<path d="M4751 5264 c0 -11 3 -14 6 -6 3 7 2 16 -1 19 -3 4 -6 -2 -5 -13z"/>
<path d="M5220 5270 c0 -3 8 -14 16 -25 16 -20 16 -20 9 2 -5 18 -3 22 9 17 9
-3 16 -1 16 5 0 6 -11 10 -25 9 -14 -1 -25 -5 -25 -8z"/>
<path d="M5790 5275 c0 -5 5 -24 12 -42 13 -37 29 -45 21 -10 -7 24 -33 67
-33 52z"/>
<path d="M4615 5250 c1 -11 7 -26 14 -33 11 -10 12 -7 6 13 -10 33 -22 46 -20
20z"/>
<path d="M6240 5237 c0 -14 4 -28 8 -31 9 -5 8 41 -1 51 -4 3 -7 -5 -7 -20z"/>
<path d="M4770 5236 c0 -9 5 -14 10 -11 6 3 10 1 10 -4 0 -6 7 -11 15 -11 8 0
15 5 15 12 0 6 -3 8 -7 5 -3 -4 -15 0 -25 10 -17 15 -18 15 -18 -1z"/>
<path d="M4831 5234 c0 -11 3 -14 6 -6 3 7 2 16 -1 19 -3 4 -6 -2 -5 -13z"/>
<path d="M4893 5229 c-2 -23 3 -25 10 -4 4 8 3 16 -1 19 -4 3 -9 -4 -9 -15z"/>
<path d="M6068 5186 c9 -24 19 -43 23 -40 9 5 -16 77 -29 82 -5 1 -3 -17 6
-42z"/>
<path d="M6020 5213 c0 -5 7 -18 15 -29 13 -18 14 -18 8 4 -5 22 -23 41 -23
25z"/>
<path d="M4771 5194 c0 -11 3 -14 6 -6 3 7 2 16 -1 19 -3 4 -6 -2 -5 -13z"/>
<path d="M5230 5202 c0 -16 30 -75 36 -70 2 3 -5 22 -16 44 -10 21 -19 33 -20
26z"/>
<path d="M5260 5201 c0 -6 4 -13 10 -16 6 -3 7 1 4 9 -7 18 -14 21 -14 7z"/>
<path d="M6400 5200 c0 -5 5 -10 11 -10 5 0 7 5 4 10 -3 6 -8 10 -11 10 -2 0
-4 -4 -4 -10z"/>
<path d="M4631 5188 c0 -9 -4 -25 -7 -35 -5 -17 -5 -17 6 0 6 10 9 25 7 35 -4
15 -5 15 -6 0z"/>
<path d="M5480 5195 c0 -5 5 -17 10 -25 5 -8 10 -10 10 -5 0 6 -5 17 -10 25
-5 8 -10 11 -10 5z"/>
<path d="M5720 5190 c0 -5 5 -10 11 -10 5 0 7 5 4 10 -3 6 -8 10 -11 10 -2 0
-4 -4 -4 -10z"/>
<path d="M4808 5163 c5 -21 7 -23 10 -9 2 10 0 22 -6 28 -6 6 -7 0 -4 -19z"/>
<path d="M5447 5170 c3 -11 9 -20 14 -20 11 0 11 3 3 24 -9 23 -23 20 -17 -4z"/>
<path d="M5893 5160 c4 -18 7 -39 7 -47 0 -8 4 -12 8 -9 11 7 2 75 -11 83 -7
4 -8 -5 -4 -27z"/>
<path d="M5820 5173 c0 -4 7 -41 17 -80 18 -77 36 -103 22 -30 -5 23 -12 57
-15 75 -6 29 -24 56 -24 35z"/>
<path d="M6000 5165 c-8 -9 -8 -15 -2 -15 12 0 26 19 19 26 -2 2 -10 -2 -17
-11z"/>
<path d="M4542 5150 c0 -14 2 -19 5 -12 2 6 2 18 0 25 -3 6 -5 1 -5 -13z"/>
<path d="M4951 5154 c0 -11 3 -14 6 -6 3 7 2 16 -1 19 -3 4 -6 -2 -5 -13z"/>
<path d="M5730 5156 c0 -9 5 -16 10 -16 6 0 10 4 10 9 0 6 -4 13 -10 16 -5 3
-10 -1 -10 -9z"/>
<path d="M5775 5160 c-3 -5 -1 -10 4 -10 6 0 11 5 11 10 0 6 -2 10 -4 10 -3 0
-8 -4 -11 -10z"/>
<path d="M4560 5144 c0 -8 5 -12 10 -9 6 4 8 11 5 16 -9 14 -15 11 -15 -7z"/>
<path d="M5285 5150 c3 -5 8 -10 11 -10 2 0 4 5 4 10 0 6 -5 10 -11 10 -5 0
-7 -4 -4 -10z"/>
<path d="M6266 5152 c-3 -5 -1 -22 4 -38 8 -28 8 -28 7 8 -2 40 -3 43 -11 30z"/>
<path d="M4860 5108 c0 -23 3 -38 8 -34 4 4 7 23 7 42 0 19 -3 34 -7 34 -5 0
-8 -19 -8 -42z"/>
<path d="M4901 5134 c0 -11 3 -14 6 -6 3 7 2 16 -1 19 -3 4 -6 -2 -5 -13z"/>
<path d="M5980 5132 c6 -13 14 -21 18 -18 3 4 -2 14 -12 24 -18 16 -18 16 -6
-6z"/>
<path d="M5788 5135 c-3 -3 -2 -24 3 -47 6 -22 7 -49 4 -59 -4 -11 -2 -19 4
-19 6 0 11 -6 11 -14 0 -8 5 -18 11 -22 9 -5 10 4 4 32 -4 21 -9 48 -10 59 -7
39 -21 76 -27 70z"/>
<path d="M5301 5114 c0 -11 3 -14 6 -6 3 7 2 16 -1 19 -3 4 -6 -2 -5 -13z"/>
<path d="M4715 5109 c-4 -6 -5 -12 -2 -15 2 -3 7 2 10 11 7 17 1 20 -8 4z"/>
<path d="M4814 5098 c-5 -8 -2 -9 9 -5 14 5 17 0 17 -29 0 -29 2 -33 14 -22 9
8 11 17 5 23 -5 5 -9 17 -9 27 0 20 -25 24 -36 6z"/>
<path d="M4895 5100 c-3 -5 1 -10 9 -10 9 0 16 5 16 10 0 6 -4 10 -9 10 -6 0
-13 -4 -16 -10z"/>
<path d="M5420 5094 c0 -5 5 -27 11 -49 6 -22 10 -52 10 -67 -1 -14 5 -32 12
-40 8 -7 13 -21 11 -31 -1 -9 2 -19 7 -23 5 -3 7 -10 4 -15 -4 -5 -2 -9 3 -9
6 0 13 -16 16 -35 4 -19 11 -35 16 -35 12 0 12 6 1 28 -5 9 -21 66 -35 126
-20 88 -23 113 -13 125 11 14 10 14 -5 2 -10 -7 -19 -11 -19 -7 -1 3 -2 10 -3
15 -1 13 -16 26 -16 15z"/>
<path d="M5700 5090 c0 -5 5 -10 10 -10 6 0 10 5 10 10 0 6 -4 10 -10 10 -5 0
-10 -4 -10 -10z"/>
<path d="M4608 5067 c-3 -19 -2 -25 4 -19 6 6 8 18 6 28 -3 14 -5 12 -10 -9z"/>
<path d="M4630 5081 c0 -10 19 -25 25 -20 1 2 -3 10 -11 17 -8 7 -14 8 -14 3z"/>
<path d="M4741 5075 c-1 -16 -3 -17 -11 -5 -14 23 -19 8 -10 -30 7 -30 8 -31
10 -10 2 16 4 19 7 9 2 -10 13 -19 24 -22 24 -6 24 2 2 19 -17 13 -17 14 2 8
18 -5 18 -4 4 8 -9 7 -18 20 -22 28 -4 11 -6 10 -6 -5z"/>
<path d="M5496 5063 c8 -44 43 -165 49 -172 6 -5 0 46 -6 59 -1 3 -3 10 -4 15
0 6 -7 34 -14 63 -14 54 -33 83 -25 35z"/>
<path d="M7091 5074 c0 -11 3 -14 6 -6 3 7 2 16 -1 19 -3 4 -6 -2 -5 -13z"/>
<path d="M6106 5067 c3 -10 9 -15 12 -12 3 3 0 11 -7 18 -10 9 -11 8 -5 -6z"/>
<path d="M5261 5054 c0 -11 3 -14 6 -6 3 7 2 16 -1 19 -3 4 -6 -2 -5 -13z"/>
<path d="M5710 5056 c0 -9 5 -16 10 -16 6 0 10 4 10 9 0 6 -4 13 -10 16 -5 3
-10 -1 -10 -9z"/>
<path d="M5878 5043 c2 -12 8 -23 13 -23 5 0 9 11 9 23 0 13 -6 24 -13 24 -9
0 -12 -9 -9 -24z"/>
<path d="M5953 5045 c0 -8 4 -15 9 -15 4 0 8 7 8 15 0 8 -4 15 -8 15 -5 0 -9
-7 -9 -15z"/>
<path d="M6196 5045 c4 -8 10 -12 15 -9 11 6 2 24 -11 24 -5 0 -7 -7 -4 -15z"/>
<path d="M7123 5053 c4 -3 1 -13 -6 -22 -11 -14 -10 -14 6 -2 20 15 22 31 5
31 -6 0 -8 -3 -5 -7z"/>
<path d="M4821 5034 c0 -11 3 -14 6 -6 3 7 2 16 -1 19 -3 4 -6 -2 -5 -13z"/>
<path d="M5460 5039 c0 -5 5 -7 12 -3 6 4 8 3 5 -3 -9 -14 3 -73 14 -73 10 0
12 34 3 68 -6 22 -34 32 -34 11z"/>
<path d="M4855 5026 c-6 -6 -7 -27 -4 -46 l6 -35 2 40 c2 32 4 36 11 20 8 -19
9 -19 9 2 1 26 -10 35 -24 19z"/>
<path d="M5300 5003 c0 -32 15 -61 26 -50 4 4 2 18 -4 32 -16 34 4 32 22 -2
14 -26 15 -26 16 -6 0 20 -33 53 -52 53 -5 0 -8 -12 -8 -27z"/>
<path d="M4553 4994 c-3 -8 -1 -20 6 -27 8 -8 11 -4 11 16 0 30 -7 35 -17 11z"/>
<path d="M4750 5000 c0 -6 6 -10 13 -10 9 0 8 -3 -2 -9 -9 -6 -10 -11 -2 -15
7 -5 8 -13 2 -24 -5 -9 -5 -26 0 -37 7 -18 8 -18 9 5 2 18 4 14 11 -15 11 -55
11 -77 -1 -70 -6 4 -8 11 -5 16 4 5 1 17 -5 26 -9 15 -10 13 -7 -12 6 -47 11
-59 27 -72 10 -9 11 -12 3 -13 -15 0 -17 -39 -3 -60 8 -12 10 -12 11 5 1 17 2
16 9 -5 5 -17 8 -19 9 -7 1 9 6 17 11 17 13 0 13 -47 1 -52 -5 -1 -3 -14 5
-28 l14 -25 -5 30 c-4 23 -3 26 4 10 5 -11 12 -47 16 -80 9 -82 18 -86 11 -5
-7 69 -43 219 -45 185 -2 -19 -2 -19 -12 -2 -6 10 -12 35 -14 55 -2 20 -8 60
-13 89 -5 29 -5 50 0 47 4 -3 8 -15 8 -26 0 -12 3 -19 6 -15 9 9 -7 68 -17 61
-5 -3 -9 4 -9 14 0 11 -7 22 -15 26 -8 3 -15 1 -15 -4z"/>
<path d="M4825 4980 c4 -23 2 -29 -6 -24 -8 4 -9 3 -5 -4 4 -7 11 -12 17 -12
12 0 12 57 -1 65 -7 4 -9 -5 -5 -25z"/>
<path d="M4974 4993 c-8 -13 -7 -30 3 -62 13 -45 9 -67 -7 -41 -19 29 -9 -6
11 -40 l20 -35 -5 31 c-3 17 0 36 7 43 8 8 8 11 -2 11 -7 0 -9 5 -5 12 9 15 6
80 -4 90 -4 4 -12 0 -18 -9z"/>
<path d="M5898 4986 c-3 -14 -1 -23 4 -20 5 3 8 -2 6 -11 -2 -10 2 -20 9 -22
8 -3 9 6 3 32 -11 47 -16 52 -22 21z"/>
<path d="M4910 4980 c0 -5 5 -10 11 -10 5 0 7 5 4 10 -3 6 -8 10 -11 10 -2 0
-4 -4 -4 -10z"/>
<path d="M5860 4981 c0 -5 5 -13 10 -16 6 -3 10 -2 10 4 0 5 -4 13 -10 16 -5
3 -10 2 -10 -4z"/>
<path d="M6051 4974 c0 -11 3 -14 6 -6 3 7 2 16 -1 19 -3 4 -6 -2 -5 -13z"/>
<path d="M6295 4970 c3 -5 8 -10 11 -10 2 0 4 5 4 10 0 6 -5 10 -11 10 -5 0
-7 -4 -4 -10z"/>
<path d="M5025 4960 c3 -5 10 -10 16 -10 5 0 9 5 9 10 0 6 -7 10 -16 10 -8 0
-12 -4 -9 -10z"/>
<path d="M5155 4959 c-4 -6 -5 -12 -2 -15 2 -3 7 2 10 11 7 17 1 20 -8 4z"/>
<path d="M5231 4965 c0 -5 6 -30 13 -55 8 -25 15 -36 15 -25 -1 21 -27 98 -28
80z"/>
<path d="M5977 4950 c3 -11 9 -17 14 -15 10 7 1 35 -11 35 -5 0 -6 -9 -3 -20z"/>
<path d="M6220 4956 c0 -9 5 -16 10 -16 6 0 10 4 10 9 0 6 -4 13 -10 16 -5 3
-10 -1 -10 -9z"/>
<path d="M6175 4950 c3 -5 8 -10 11 -10 2 0 4 5 4 10 0 6 -5 10 -11 10 -5 0
-7 -4 -4 -10z"/>
<path d="M4572 4930 c0 -14 2 -19 5 -12 2 6 2 18 0 25 -3 6 -5 1 -5 -13z"/>
<path d="M4597 4943 c-3 -5 -3 -23 2 -38 6 -23 9 -26 14 -12 7 20 -7 65 -16
50z"/>
<path d="M5355 4940 c3 -5 8 -10 11 -10 2 0 4 5 4 10 0 6 -5 10 -11 10 -5 0
-7 -4 -4 -10z"/>
<path d="M5495 4921 c6 -37 11 -48 21 -39 3 3 -2 21 -11 39 l-15 34 5 -34z"/>
<path d="M6050 4939 c0 -8 7 -24 15 -35 11 -15 14 -16 15 -3 0 8 -7 24 -15 35
-11 15 -14 16 -15 3z"/>
<path d="M6301 4935 c-1 -24 15 -52 24 -43 4 3 0 19 -9 35 -13 23 -15 24 -15
8z"/>
<path d="M5031 4924 c0 -11 3 -14 6 -6 3 7 2 16 -1 19 -3 4 -6 -2 -5 -13z"/>
<path d="M5331 4924 c0 -11 3 -14 6 -6 3 7 2 16 -1 19 -3 4 -6 -2 -5 -13z"/>
<path d="M4507 4909 c4 -13 8 -18 11 -10 2 7 -1 18 -6 23 -8 8 -9 4 -5 -13z"/>
<path d="M4531 4915 c1 -31 15 -60 22 -48 4 6 0 24 -8 39 -12 23 -15 25 -14 9z"/>
<path d="M4630 4905 c0 -8 2 -15 4 -15 2 0 6 7 10 15 3 8 1 15 -4 15 -6 0 -10
-7 -10 -15z"/>
<path d="M4900 4906 c0 -8 6 -16 14 -19 10 -4 12 0 9 14 -6 22 -23 26 -23 5z"/>
<path d="M4840 4902 c0 -7 -4 -11 -8 -8 -4 2 -14 1 -21 -3 -9 -6 -10 -11 -2
-15 6 -4 11 -2 11 5 0 18 30 -10 31 -30 0 -11 4 -9 11 7 9 18 8 26 -5 40 -12
11 -17 12 -17 4z"/>
<path d="M5270 4904 c0 -5 7 -19 15 -30 8 -10 15 -14 15 -8 0 5 -7 19 -15 30
-8 10 -15 14 -15 8z"/>
<path d="M5360 4897 c0 -8 7 -28 16 -45 8 -17 17 -44 20 -59 2 -16 6 -33 9
-39 2 -7 -2 -29 -9 -49 l-13 -38 -5 31 c-3 19 0 30 6 29 6 -1 11 4 10 11 -3
36 -5 42 -14 42 -5 0 -7 -6 -4 -14 3 -8 1 -17 -5 -21 -6 -3 -11 2 -11 12 0 10
-5 25 -11 33 -7 11 -8 1 -4 -35 5 -47 4 -48 -8 -22 -7 15 -16 25 -20 21 -3 -3
-2 -14 3 -23 4 -9 13 -32 18 -51 l10 -35 2 30 c2 25 4 23 11 -15 4 -25 10 -67
13 -95 3 -27 3 -39 0 -25 -11 58 -15 70 -23 70 -6 0 -6 -12 -1 -30 5 -19 5
-28 -1 -25 -5 4 -9 -1 -9 -9 0 -9 5 -16 10 -16 6 0 10 -7 10 -16 0 -8 4 -13 9
-9 5 3 11 -7 13 -22 2 -14 9 -28 16 -31 16 -5 15 44 -2 126 -8 35 -10 65 -5
68 5 3 9 -5 10 -18 l0 -23 9 23 c5 12 7 30 4 40 -5 15 -4 15 5 1 6 -9 12 -31
14 -50 3 -19 8 -43 12 -54 6 -18 5 -18 -5 -2 -15 23 -30 22 -30 -3 0 -11 4
-20 9 -20 5 0 8 -22 6 -50 -3 -28 0 -52 6 -56 7 -4 10 4 9 22 -5 68 -1 82 20
77 10 -3 22 -14 25 -24 4 -10 9 -19 13 -19 9 0 9 106 0 116 -5 4 -8 14 -7 23
0 12 3 11 10 -4 7 -15 8 -11 5 18 -3 21 -14 58 -26 81 -11 23 -20 47 -20 53 0
6 -7 14 -16 17 -13 5 -15 0 -10 -27 5 -24 4 -27 -3 -12 -22 50 -51 129 -51
141 0 8 -4 14 -10 14 -5 0 -10 -6 -10 -13z m90 -182 c0 -18 20 -20 21 -2 0 6
4 3 9 -8 13 -31 12 -39 -5 -25 -13 11 -15 8 -15 -14 0 -17 4 -25 11 -20 8 4 9
-3 5 -23 -4 -16 -2 -43 4 -59 8 -20 8 -26 0 -18 -5 6 -15 39 -22 74 -6 36 -17
70 -24 78 -11 10 -14 10 -14 1 0 -7 -3 -9 -6 -6 -8 8 14 37 27 37 5 0 9 -7 9
-15z"/>
<path d="M4350 4891 c0 -6 4 -13 10 -16 6 -3 7 1 4 9 -7 18 -14 21 -14 7z"/>
<path d="M5310 4891 c0 -6 4 -13 10 -16 6 -3 7 1 4 9 -7 18 -14 21 -14 7z"/>
<path d="M5337 4883 c3 -10 10 -23 14 -29 5 -6 6 -13 3 -17 -3 -3 -1 -14 5
-24 10 -17 10 -17 11 1 0 26 -22 86 -32 86 -4 0 -5 -8 -1 -17z"/>
<path d="M4582 4870 c0 -14 2 -19 5 -12 2 6 2 18 0 25 -3 6 -5 1 -5 -13z"/>
<path d="M5046 4877 c3 -10 9 -15 12 -12 3 3 0 11 -7 18 -10 9 -11 8 -5 -6z"/>
<path d="M5980 4881 c0 -10 19 -25 25 -20 1 2 -3 10 -11 17 -8 7 -14 8 -14 3z"/>
<path d="M6230 4885 c0 -5 5 -17 10 -25 5 -8 10 -10 10 -5 0 6 -5 17 -10 25
-5 8 -10 11 -10 5z"/>
<path d="M5412 4856 c1 -14 8 -28 15 -31 10 -3 11 0 4 14 -6 10 -8 21 -5 24 3
3 1 8 -5 12 -7 4 -10 -4 -9 -19z"/>
<path d="M4875 4850 c-8 -13 13 -40 31 -40 8 0 14 -6 15 -12 0 -7 4 -4 8 7 11
26 3 39 -15 24 -13 -11 -19 -2 -15 24 2 11 -17 9 -24 -3z"/>
<path d="M5267 4843 c3 -14 1 -23 -6 -23 -6 0 -11 -5 -11 -12 0 -6 3 -8 7 -5
3 4 12 2 20 -5 11 -9 12 -7 8 8 -4 10 1 7 10 -8 21 -36 27 -35 21 3 -5 34 -26
65 -26 39 0 -9 -5 -7 -15 6 -14 18 -14 18 -8 -3z"/>
<path d="M5324 4845 c3 -21 16 -31 16 -12 0 9 -4 18 -9 21 -5 4 -8 -1 -7 -9z"/>
<path d="M5717 4839 c4 -15 8 -17 14 -8 8 14 3 29 -11 29 -4 0 -6 -9 -3 -21z"/>
<path d="M5048 4815 c2 -19 6 -35 8 -35 2 0 4 16 4 35 0 19 -4 35 -8 35 -4 0
-6 -16 -4 -35z"/>
<path d="M5532 4808 c6 -24 14 -51 19 -60 5 -10 9 -23 9 -30 -1 -7 -9 5 -20
27 -15 32 -20 36 -25 23 -4 -10 -4 -26 1 -35 4 -10 9 -34 11 -53 4 -42 20 -61
29 -36 4 10 2 22 -5 29 -15 15 -14 30 2 25 6 -3 14 -20 17 -38 5 -34 30 -55
30 -25 0 9 5 13 10 10 6 -3 10 -17 10 -31 0 -13 5 -24 10 -24 6 0 8 11 3 28
-3 15 -6 35 -5 44 0 10 -3 20 -9 23 -5 4 -9 -2 -9 -12 0 -15 -3 -14 -16 5 -9
13 -14 31 -11 41 2 10 -2 26 -9 36 -8 10 -14 27 -14 37 0 11 -8 28 -19 39 -18
20 -18 19 -9 -23z"/>
<path d="M5151 4824 c0 -11 3 -14 6 -6 3 7 2 16 -1 19 -3 4 -6 -2 -5 -13z"/>
<path d="M4481 4814 c0 -11 3 -14 6 -6 3 7 2 16 -1 19 -3 4 -6 -2 -5 -13z"/>
<path d="M5126 4805 c-9 -26 -7 -32 5 -12 6 10 9 21 6 23 -2 3 -7 -2 -11 -11z"/>
<path d="M5191 4804 c0 -11 3 -14 6 -6 3 7 2 16 -1 19 -3 4 -6 -2 -5 -13z"/>
<path d="M5570 4806 c0 -9 5 -16 10 -16 6 0 10 4 10 9 0 6 -4 13 -10 16 -5 3
-10 -1 -10 -9z"/>
<path d="M5890 4804 c0 -8 5 -12 10 -9 6 4 8 11 5 16 -9 14 -15 11 -15 -7z"/>
<path d="M4542 4790 c0 -14 2 -19 5 -12 2 6 2 18 0 25 -3 6 -5 1 -5 -13z"/>
<path d="M4977 4796 c-10 -25 -8 -34 3 -16 6 10 10 11 10 3 0 -23 -2 -28 -11
-26 -5 2 -3 -8 3 -22 17 -38 29 -30 26 19 -2 24 -6 42 -10 40 -3 -2 -8 1 -10
8 -3 7 -7 5 -11 -6z"/>
<path d="M5227 4790 c8 -30 21 -34 15 -5 -2 14 -8 25 -12 25 -5 0 -6 -9 -3
-20z"/>
<path d="M5468 4781 c3 -20 8 -28 18 -24 19 7 18 17 -4 36 -18 16 -18 15 -14
-12z"/>
<path d="M4510 4785 c0 -8 5 -15 10 -15 6 0 10 7 10 15 0 8 -4 15 -10 15 -5 0
-10 -7 -10 -15z"/>
<path d="M4885 4734 c1 -32 5 -66 7 -74 2 -8 0 -5 -6 8 -17 39 -26 24 -10 -20
16 -47 33 -70 44 -63 5 3 18 -7 29 -21 17 -22 21 -23 21 -8 0 17 1 17 14 -2
18 -24 16 0 -3 34 -14 27 -8 52 12 52 12 0 12 7 0 44 -13 39 -43 71 -43 46 0
-5 -7 -7 -15 -4 -8 4 -15 17 -15 29 0 13 -4 27 -10 30 -5 3 -10 0 -10 -7 0
-10 -2 -10 -9 1 -6 9 -8 -7 -6 -45z m95 -78 c0 -25 -14 -24 -39 2 -15 16 -18
23 -7 19 10 -4 16 -1 16 9 0 14 2 14 15 0 8 -8 15 -21 15 -30z m-15 -56 c3 -5
-1 -10 -10 -10 -9 0 -13 5 -10 10 3 6 8 10 10 10 2 0 7 -4 10 -10z"/>
<path d="M5583 4762 c10 -10 17 -28 17 -40 0 -12 5 -22 10 -22 6 0 10 7 10 15
0 20 -29 65 -43 65 -5 0 -3 -8 6 -18z"/>
<path d="M5981 4764 c0 -11 3 -14 6 -6 3 7 2 16 -1 19 -3 4 -6 -2 -5 -13z"/>
<path d="M5067 4763 c-4 -3 -7 -11 -7 -17 0 -6 5 -5 12 2 6 6 9 14 7 17 -3 3
-9 2 -12 -2z"/>
<path d="M5627 4738 c12 -62 19 -82 31 -86 14 -4 11 18 -6 61 -7 16 -12 32
-12 37 0 5 -4 12 -10 15 -6 4 -7 -6 -3 -27z"/>
<path d="M6421 4754 c0 -11 3 -14 6 -6 3 7 2 16 -1 19 -3 4 -6 -2 -5 -13z"/>
<path d="M4851 4746 c1 -16 17 -53 18 -41 1 6 4 19 7 31 4 14 1 21 -10 21 -9
0 -16 -5 -15 -11z"/>
<path d="M5187 4743 c3 -7 9 -10 14 -7 14 8 11 21 -5 21 -8 0 -12 -6 -9 -14z"/>
<path d="M4531 4741 c-8 -5 -11 -16 -8 -24 3 -8 1 -19 -4 -24 -7 -7 -5 -13 7
-17 14 -5 16 -2 11 23 -7 35 1 45 22 28 14 -11 14 -10 2 6 -7 9 -14 17 -15 17
0 0 -7 -4 -15 -9z"/>
<path d="M4467 4723 c-4 -3 -7 -11 -7 -17 0 -6 5 -4 10 4 7 11 10 1 10 -34 0
-35 3 -47 10 -40 7 7 8 28 4 52 -6 41 -13 49 -27 35z"/>
<path d="M5072 4705 c0 -16 2 -22 5 -12 2 9 2 23 0 30 -3 6 -5 -1 -5 -18z"/>
<path d="M5956 4711 c-3 -5 1 -14 9 -21 12 -10 15 -10 15 3 0 19 -16 31 -24
18z"/>
<path d="M5890 4678 c0 -19 2 -20 10 -8 13 19 13 30 0 30 -5 0 -10 -10 -10
-22z"/>
<path d="M4790 4665 c0 -8 5 -15 10 -15 6 0 10 7 10 15 0 8 -4 15 -10 15 -5 0
-10 -7 -10 -15z"/>
<path d="M5939 4675 c-4 -5 -1 -28 6 -50 9 -26 13 -33 14 -18 1 12 4 30 7 40
5 14 4 15 -4 4 -8 -11 -11 -9 -14 10 -1 13 -6 20 -9 14z"/>
<path d="M4431 4654 c0 -11 3 -14 6 -6 3 7 2 16 -1 19 -3 4 -6 -2 -5 -13z"/>
<path d="M5182 4640 c0 -19 2 -27 5 -17 2 9 2 25 0 35 -3 9 -5 1 -5 -18z"/>
<path d="M4544 4652 c-6 -4 -14 -16 -17 -27 l-7 -20 16 20 c11 14 18 16 21 7
3 -6 9 -10 13 -7 10 6 2 35 -9 35 -3 0 -11 -4 -17 -8z"/>
<path d="M5201 4634 c0 -11 3 -14 6 -6 3 7 2 16 -1 19 -3 4 -6 -2 -5 -13z"/>
<path d="M4700 4606 c0 -25 3 -27 24 -22 15 4 26 1 29 -7 4 -8 6 -7 6 3 1 24
-15 44 -24 30 -5 -8 -11 -6 -21 7 -12 17 -13 16 -14 -11z"/>
<path d="M5231 4614 c0 -11 3 -14 6 -6 3 7 2 16 -1 19 -3 4 -6 -2 -5 -13z"/>
<path d="M5540 4616 c0 -4 5 -16 10 -27 12 -21 1 -26 -18 -7 -9 9 -12 8 -12
-5 0 -10 8 -17 19 -17 11 0 22 -6 24 -12 3 -7 6 1 6 18 1 17 -6 37 -14 44 -8
7 -15 9 -15 6z"/>
<path d="M4465 4597 c-4 -10 -5 -21 -1 -24 10 -10 18 4 13 24 -4 17 -4 17 -12
0z"/>
<path d="M4770 4590 c0 -11 4 -20 8 -20 4 0 8 9 9 20 1 11 -2 20 -8 20 -5 0
-9 -9 -9 -20z"/>
<path d="M4577 4593 c-10 -9 -9 -41 1 -47 5 -3 9 8 10 24 1 32 -1 34 -11 23z"/>
<path d="M5320 4555 c0 -27 3 -45 7 -41 7 7 5 77 -3 85 -2 2 -4 -17 -4 -44z"/>
<path d="M4804 4579 c-3 -6 -2 -15 4 -21 6 -6 11 -2 15 11 5 22 -7 29 -19 10z"/>
<path d="M5700 4581 c0 -5 5 -13 10 -16 6 -3 10 -2 10 4 0 5 -4 13 -10 16 -5
3 -10 2 -10 -4z"/>
<path d="M4671 4564 c0 -11 3 -14 6 -6 3 7 2 16 -1 19 -3 4 -6 -2 -5 -13z"/>
<path d="M4920 4571 c0 -5 7 -12 16 -15 14 -5 15 -4 4 9 -14 17 -20 19 -20 6z"/>
<path d="M5755 4570 c3 -5 8 -10 11 -10 2 0 4 5 4 10 0 6 -5 10 -11 10 -5 0
-7 -4 -4 -10z"/>
<path d="M5630 4563 c0 -4 5 -15 10 -23 8 -13 10 -13 10 2 0 9 -4 20 -10 23
-5 3 -10 3 -10 -2z"/>
<path d="M4465 4551 c-3 -5 -1 -12 5 -16 5 -3 10 1 10 9 0 18 -6 21 -15 7z"/>
<path d="M4490 4550 c0 -5 5 -10 11 -10 5 0 7 5 4 10 -3 6 -8 10 -11 10 -2 0
-4 -4 -4 -10z"/>
<path d="M4536 4544 c-8 -20 -8 -24 2 -24 4 0 8 9 9 20 2 24 -3 26 -11 4z"/>
<path d="M4786 4533 c10 -40 14 -41 14 -5 0 18 -5 32 -10 32 -6 0 -8 -11 -4
-27z"/>
<path d="M4904 4549 c3 -15 46 -32 46 -19 0 6 -9 10 -19 10 -11 0 -22 5 -24
10 -3 6 -4 5 -3 -1z"/>
<path d="M5062 4540 c0 -14 2 -19 5 -12 2 6 2 18 0 25 -3 6 -5 1 -5 -13z"/>
<path d="M5796 4543 c-6 -14 -5 -15 5 -6 7 7 10 15 7 18 -3 3 -9 -2 -12 -12z"/>
<path d="M4421 4518 c1 -23 3 -26 6 -10 3 12 9 19 15 16 6 -4 9 -1 6 6 -10 30
-28 21 -27 -12z"/>
<path d="M4841 4534 c0 -11 3 -14 6 -6 3 7 2 16 -1 19 -3 4 -6 -2 -5 -13z"/>
<path d="M5750 4539 c0 -5 5 -7 10 -4 6 3 10 8 10 11 0 2 -4 4 -10 4 -5 0 -10
-5 -10 -11z"/>
<path d="M4810 4515 c0 -14 4 -25 9 -25 5 0 8 11 7 25 -1 33 -16 33 -16 0z"/>
<path d="M5720 4525 c0 -8 5 -15 10 -15 6 0 10 7 10 15 0 8 -4 15 -10 15 -5 0
-10 -7 -10 -15z"/>
<path d="M4570 4508 c0 -12 3 -18 7 -14 11 10 12 36 2 36 -5 0 -9 -10 -9 -22z"/>
<path d="M5531 4514 c0 -11 3 -14 6 -6 3 7 2 16 -1 19 -3 4 -6 -2 -5 -13z"/>
<path d="M6030 4523 c0 -7 5 -15 10 -18 6 -4 8 -10 5 -15 -3 -5 -1 -11 5 -15
5 -3 10 0 10 7 -1 16 -30 56 -30 41z"/>
<path d="M4976 4511 c-7 -11 35 -121 47 -121 4 0 1 13 -7 29 -9 16 -18 44 -21
62 -7 38 -11 44 -19 30z"/>
<path d="M4945 4500 c3 -5 8 -10 11 -10 2 0 4 5 4 10 0 6 -5 10 -11 10 -5 0
-7 -4 -4 -10z"/>
<path d="M5000 4503 c0 -4 5 -15 10 -23 8 -13 10 -13 10 2 0 9 -4 20 -10 23
-5 3 -10 3 -10 -2z"/>
<path d="M5456 4485 c4 -8 8 -15 10 -15 2 0 4 7 4 15 0 8 -4 15 -10 15 -5 0
-7 -7 -4 -15z"/>
<path d="M5581 4474 c0 -11 3 -14 6 -6 3 7 2 16 -1 19 -3 4 -6 -2 -5 -13z"/>
<path d="M4876 4464 c-9 -24 -7 -64 3 -64 6 0 9 18 9 40 0 44 -3 48 -12 24z"/>
<path d="M4956 4465 c4 -8 8 -15 10 -15 2 0 4 7 4 15 0 8 -4 15 -10 15 -5 0
-7 -7 -4 -15z"/>
<path d="M5360 4465 c0 -8 4 -15 10 -15 5 0 7 7 4 15 -4 8 -8 15 -10 15 -2 0
-4 -7 -4 -15z"/>
<path d="M5653 4465 c-9 -25 4 -29 17 -6 7 15 7 21 0 21 -6 0 -13 -7 -17 -15z"/>
<path d="M4816 4462 c-3 -5 -3 -20 0 -33 3 -13 5 -36 5 -51 0 -16 5 -28 10
-28 5 0 7 24 3 58 -7 62 -9 68 -18 54z"/>
<path d="M4846 4440 c4 -90 5 -96 13 -75 9 22 3 105 -8 105 -3 0 -5 -13 -5
-30z"/>
<path d="M4390 4439 c0 -11 4 -18 10 -14 5 3 7 12 3 20 -7 21 -13 19 -13 -6z"/>
<path d="M4900 4444 c0 -8 5 -12 10 -9 6 4 8 11 5 16 -9 14 -15 11 -15 -7z"/>
<path d="M5780 4449 c0 -5 5 -7 10 -4 6 3 10 8 10 11 0 2 -4 4 -10 4 -5 0 -10
-5 -10 -11z"/>
<path d="M4790 4425 c0 -8 4 -15 10 -15 5 0 7 7 4 15 -4 8 -8 15 -10 15 -2 0
-4 -7 -4 -15z"/>
<path d="M5900 4420 c0 -5 5 -10 10 -10 6 0 10 5 10 10 0 6 -4 10 -10 10 -5 0
-10 -4 -10 -10z"/>
<path d="M4360 4401 c0 -12 5 -21 10 -21 6 0 10 6 10 14 0 8 -4 18 -10 21 -5
3 -10 -3 -10 -14z"/>
<path d="M4980 4411 c0 -6 4 -13 10 -16 6 -3 7 1 4 9 -7 18 -14 21 -14 7z"/>
<path d="M5391 4401 c-1 -20 1 -21 14 -11 16 14 21 25 6 16 -5 -4 -12 0 -14 6
-3 7 -6 2 -6 -11z"/>
<path d="M5557 4413 c-4 -3 -7 -11 -7 -17 0 -6 5 -5 12 2 6 6 9 14 7 17 -3 3
-9 2 -12 -2z"/>
<path d="M5780 4402 c0 -11 4 -23 8 -26 10 -6 9 30 -1 40 -4 4 -7 -2 -7 -14z"/>
<path d="M5043 4403 c4 -6 0 -13 -8 -17 -10 -3 -14 -18 -12 -45 1 -21 5 -37 8
-35 4 2 9 -5 12 -15 3 -15 1 -18 -12 -14 -14 4 -14 3 2 -10 18 -15 24 -32 7
-22 -5 3 -10 -1 -10 -10 0 -9 5 -13 11 -10 7 5 9 -8 5 -41 -3 -26 -11 -51 -18
-55 -10 -7 -10 -9 1 -9 11 0 11 -3 1 -15 -7 -8 -10 -26 -8 -40 3 -14 1 -28 -4
-31 -4 -3 -6 -10 -3 -15 4 -5 0 -9 -7 -9 -10 0 -9 -3 1 -9 12 -8 13 -12 2 -25
-11 -13 -17 -14 -30 -4 -14 11 -14 11 -4 -2 9 -12 11 -55 3 -55 -1 0 -3 -9 -5
-19 -2 -10 -10 -23 -17 -27 -10 -6 -9 -11 6 -22 19 -14 19 -16 3 -32 -10 -9
-15 -20 -12 -25 3 -4 -2 -13 -10 -20 -8 -7 -15 -17 -15 -22 0 -6 7 -5 15 2 12
10 15 10 15 -4 0 -9 -8 -16 -20 -16 -11 0 -20 -4 -20 -10 0 -5 8 -6 17 -3 14
6 14 3 -3 -19 -13 -18 -22 -22 -27 -14 -4 6 -5 -10 -2 -36 3 -28 2 -48 -4 -48
-5 0 -11 6 -14 13 -2 6 -6 -2 -8 -18 -4 -24 -1 -31 12 -31 10 0 15 4 13 8 -3
4 0 8 5 8 6 0 11 7 11 15 0 8 5 15 10 15 6 0 10 6 10 14 0 8 5 18 12 22 7 5 8
2 3 -7 -4 -8 0 -7 11 3 22 21 31 148 11 160 -8 5 -7 8 4 8 19 0 31 45 22 79
-3 11 -1 21 3 21 18 0 34 59 49 185 10 79 13 149 9 180 -4 27 -6 66 -5 86 1
21 -3 40 -10 45 -7 4 -10 3 -6 -3z"/>
<path d="M5630 4382 c0 -18 4 -32 8 -32 9 0 8 47 -1 57 -4 3 -7 -8 -7 -25z"/>
<path d="M4450 4390 c-8 -5 -12 -11 -9 -14 2 -3 11 -1 19 4 8 5 12 11 9 14 -2
3 -11 1 -19 -4z"/>
<path d="M5368 4378 c-2 -12 -9 -22 -16 -20 -8 1 -11 -2 -8 -7 3 -5 14 -8 24
-7 12 2 16 10 14 27 -5 33 -10 35 -14 7z"/>
<path d="M5327 4379 c7 -7 15 -10 18 -7 3 3 -2 9 -12 12 -14 6 -15 5 -6 -5z"/>
<path d="M5595 4370 c10 -11 20 -20 23 -20 3 0 -3 9 -13 20 -10 11 -20 20 -23
20 -3 0 3 -9 13 -20z"/>
<path d="M4790 4360 c0 -5 5 -10 11 -10 5 0 7 5 4 10 -3 6 -8 10 -11 10 -2 0
-4 -4 -4 -10z"/>
<path d="M5406 4335 c8 -48 10 -51 16 -28 2 10 -2 29 -9 43 -13 24 -13 23 -7
-15z"/>
<path d="M4430 4344 c0 -8 5 -12 10 -9 6 4 8 11 5 16 -9 14 -15 11 -15 -7z"/>
<path d="M5835 4349 c-4 -6 -5 -12 -2 -15 2 -3 7 2 10 11 7 17 1 20 -8 4z"/>
<path d="M4321 4334 c0 -11 3 -14 6 -6 3 7 2 16 -1 19 -3 4 -6 -2 -5 -13z"/>
<path d="M4520 4321 c0 -14 -2 -14 -10 -1 -5 8 -10 10 -10 5 0 -13 20 -35 32
-35 4 0 8 8 9 18 0 10 3 12 6 5 7 -19 22 -16 20 5 -1 23 -47 27 -47 3z"/>
<path d="M5720 4320 c0 -11 4 -20 9 -20 5 0 7 9 4 20 -3 11 -7 20 -9 20 -2 0
-4 -9 -4 -20z"/>
<path d="M5567 4313 c3 -7 9 -10 14 -7 14 8 11 21 -5 21 -8 0 -12 -6 -9 -14z"/>
<path d="M4356 4295 c8 -37 14 -45 14 -19 0 10 -5 26 -10 34 -8 11 -9 7 -4
-15z"/>
<path d="M5451 4311 c-7 -5 -11 -13 -7 -19 6 -10 13 -41 36 -152 6 -25 17 -76
26 -115 8 -38 16 -88 17 -109 1 -22 7 -41 12 -43 15 -5 13 79 -2 94 -6 7 -15
39 -19 70 -3 32 -10 65 -15 74 -5 10 -3 23 6 35 13 18 14 17 15 -11 0 -16 7
-48 15 -70 l16 -40 -6 35 c-4 19 -7 47 -8 62 -1 14 -5 30 -9 34 -5 4 -8 19 -8
33 0 14 -5 33 -10 41 -7 11 -8 2 -5 -27 3 -24 1 -43 -3 -43 -5 0 -9 17 -10 37
-1 20 -6 41 -12 47 -17 17 -11 29 8 15 16 -13 16 -12 1 6 -10 11 -19 28 -20
37 -3 12 -8 15 -18 9z"/>
<path d="M5374 4293 c19 -65 63 -298 73 -388 7 -74 21 -77 17 -3 -6 111 -15
171 -35 250 -10 42 -19 88 -19 102 0 14 -4 26 -10 26 -5 0 -10 7 -10 15 0 8
-5 15 -11 15 -6 0 -8 -8 -5 -17z"/>
<path d="M5761 4284 c0 -11 3 -14 6 -6 3 7 2 16 -1 19 -3 4 -6 -2 -5 -13z"/>
<path d="M4341 4274 c0 -11 3 -14 6 -6 3 7 2 16 -1 19 -3 4 -6 -2 -5 -13z"/>
<path d="M5327 4250 c8 -54 8 -66 -2 -107 -6 -27 -4 -33 9 -33 16 0 20 -19 19
-90 -1 -21 1 -26 4 -12 2 12 9 22 14 22 5 0 7 19 5 43 -3 34 -8 43 -25 45 -11
2 -21 10 -21 19 0 9 6 13 15 9 12 -4 14 2 11 37 -2 23 -11 58 -20 77 l-16 35
7 -45z"/>
<path d="M6621 4264 c0 -11 3 -14 6 -6 3 7 2 16 -1 19 -3 4 -6 -2 -5 -13z"/>
<path d="M5420 4251 c0 -13 7 -51 16 -85 22 -86 39 -174 43 -229 0 -10 4 -16
9 -13 4 2 6 -14 4 -36 -3 -22 0 -44 5 -49 6 -6 10 3 10 23 0 18 1 44 2 58 1
14 -2 43 -7 65 -12 47 -34 153 -36 175 -3 17 -11 40 -32 85 -12 28 -14 28 -14
6z"/>
<path d="M5535 4238 c21 -112 39 -178 51 -182 8 -3 14 -1 14 4 0 6 -4 10 -8
10 -12 0 -39 117 -41 178 -1 12 -6 22 -12 22 -7 0 -8 -12 -4 -32z"/>
<path d="M4860 4224 c0 -14 4 -23 10 -19 6 3 10 15 10 26 0 10 -4 19 -10 19
-5 0 -10 -12 -10 -26z"/>
<path d="M4470 4230 c0 -5 5 -10 11 -10 5 0 7 5 4 10 -3 6 -8 10 -11 10 -2 0
-4 -4 -4 -10z"/>
<path d="M4826 4231 c-4 -5 -2 -12 3 -15 5 -4 12 -2 15 3 4 5 2 12 -3 15 -5 4
-12 2 -15 -3z"/>
<path d="M5305 4206 c4 -42 10 -54 17 -34 3 7 -1 27 -8 43 l-14 30 5 -39z"/>
<path d="M5730 4230 c0 -5 5 -10 10 -10 6 0 10 5 10 10 0 6 -4 10 -10 10 -5 0
-10 -4 -10 -10z"/>
<path d="M5831 4224 c0 -11 3 -14 6 -6 3 7 2 16 -1 19 -3 4 -6 -2 -5 -13z"/>
<path d="M4420 4226 c0 -15 21 -56 29 -56 5 0 3 14 -5 30 -14 27 -24 38 -24
26z"/>
<path d="M5770 4225 c0 -5 5 -17 10 -25 5 -8 10 -10 10 -5 0 6 -5 17 -10 25
-5 8 -10 11 -10 5z"/>
<path d="M5140 4209 c0 -5 5 -7 10 -4 6 3 10 8 10 11 0 2 -4 4 -10 4 -5 0 -10
-5 -10 -11z"/>
<path d="M5581 4199 c-1 -14 6 -34 14 -45 14 -18 14 -17 6 11 -17 57 -19 60
-20 34z"/>
<path d="M5631 4194 c0 -11 3 -14 6 -6 3 7 2 16 -1 19 -3 4 -6 -2 -5 -13z"/>
<path d="M5711 4193 c7 -10 15 -20 16 -22 2 -2 3 3 3 11 0 9 -7 19 -16 22 -15
6 -15 4 -3 -11z"/>
<path d="M4341 4178 c-1 -21 7 -22 29 -7 13 9 13 10 -2 6 -9 -3 -19 -1 -22 6
-2 7 -5 4 -5 -5z"/>
<path d="M4390 4186 c0 -2 7 -6 15 -10 8 -3 15 -1 15 4 0 6 -7 10 -15 10 -8 0
-15 -2 -15 -4z"/>
<path d="M5375 4180 c-3 -6 -3 -25 1 -43 8 -37 13 -69 18 -112 4 -38 21 -81
37 -91 8 -5 9 -3 3 7 -4 8 -11 37 -15 64 -4 28 -10 61 -13 75 -4 14 -9 43 -12
65 -7 46 -9 50 -19 35z"/>
<path d="M5790 4162 c6 -13 14 -21 18 -18 3 4 -2 14 -12 24 -18 16 -18 16 -6
-6z"/>
<path d="M5631 4160 c0 -8 4 -24 9 -35 7 -19 8 -19 15 -2 5 12 2 24 -9 35 -13
13 -16 14 -15 2z"/>
<path d="M5671 4144 c0 -11 3 -14 6 -6 3 7 2 16 -1 19 -3 4 -6 -2 -5 -13z"/>
<path d="M4345 4131 c-3 -6 -11 -9 -16 -6 -5 4 -9 1 -9 -5 0 -6 -5 -8 -12 -4
-9 5 -9 2 1 -9 12 -15 11 -17 -3 -17 -9 0 -15 -5 -13 -12 1 -7 -4 -12 -11 -13
-15 0 -33 -26 -26 -37 10 -17 25 -7 19 12 -5 15 -3 18 9 14 16 -6 55 30 56 53
0 6 6 13 13 16 6 2 9 7 6 11 -4 4 -10 2 -14 -3z"/>
<path d="M4481 4104 c0 -11 3 -14 6 -6 3 7 2 16 -1 19 -3 4 -6 -2 -5 -13z"/>
<path d="M4971 4094 c0 -11 3 -14 6 -6 3 7 2 16 -1 19 -3 4 -6 -2 -5 -13z"/>
<path d="M4994 4075 c0 -19 3 -35 8 -35 4 0 8 16 8 35 0 19 -3 35 -8 35 -4 0
-7 -16 -8 -35z"/>
<path d="M5170 4084 c0 -14 4 -23 9 -20 5 3 7 15 4 26 -7 28 -13 25 -13 -6z"/>
<path d="M5606 4085 c4 -8 8 -15 10 -15 2 0 4 7 4 15 0 8 -4 15 -10 15 -5 0
-7 -7 -4 -15z"/>
<path d="M4335 4069 c-4 -6 -5 -12 -2 -15 2 -3 7 2 10 11 7 17 1 20 -8 4z"/>
<path d="M5336 4057 c3 -10 9 -15 12 -12 3 3 0 11 -7 18 -10 9 -11 8 -5 -6z"/>
<path d="M5776 4061 c-4 -6 -2 -20 5 -32 6 -12 11 -37 11 -55 0 -19 4 -31 9
-28 11 6 2 105 -10 117 -5 5 -12 4 -15 -2z"/>
<path d="M5746 4044 c-9 -23 -7 -36 4 -29 5 3 9 -2 8 -12 -2 -30 2 -53 10 -53
13 0 11 58 -3 70 -8 6 -11 18 -8 26 3 8 3 14 0 14 -3 0 -8 -7 -11 -16z"/>
<path d="M5717 4043 c-4 -3 -7 -11 -7 -17 0 -6 5 -5 12 2 6 6 9 14 7 17 -3 3
-9 2 -12 -2z"/>
<path d="M7020 4025 c0 -8 2 -15 4 -15 2 0 6 7 10 15 3 8 1 15 -4 15 -6 0 -10
-7 -10 -15z"/>
<path d="M4982 4010 c0 -14 2 -19 5 -12 2 6 2 18 0 25 -3 6 -5 1 -5 -13z"/>
<path d="M5190 4020 c-9 -6 -10 -10 -3 -10 6 0 15 5 18 10 8 12 4 12 -15 0z"/>
<path d="M6861 4014 c0 -11 3 -14 6 -6 3 7 2 16 -1 19 -3 4 -6 -2 -5 -13z"/>
<path d="M5716 3995 c4 -8 8 -15 10 -15 2 0 4 7 4 15 0 8 -4 15 -10 15 -5 0
-7 -7 -4 -15z"/>
<path d="M4361 3965 c30 -50 47 -56 19 -7 -13 23 -27 42 -32 42 -4 0 2 -16 13
-35z"/>
<path d="M5670 3985 c1 -24 26 -60 33 -47 3 4 -3 21 -14 38 -16 24 -19 26 -19
9z"/>
<path d="M5376 3963 c11 -54 14 -59 24 -44 9 16 -7 71 -21 71 -5 0 -7 -12 -3
-27z"/>
<path d="M5558 3949 c-2 -22 -1 -42 3 -45 4 -2 9 14 11 37 2 22 1 42 -3 45 -4
2 -9 -14 -11 -37z"/>
<path d="M4467 3966 c-4 -9 -2 -18 3 -21 5 -3 7 -17 4 -31 -3 -16 -1 -23 6
-19 5 3 7 22 4 43 -7 44 -10 48 -17 28z"/>
<path d="M4615 3955 c3 -35 15 -44 15 -12 0 14 -4 28 -9 31 -5 4 -8 -5 -6 -19z"/>
<path d="M5600 3958 c0 -27 21 -88 29 -84 9 6 -10 96 -21 96 -5 0 -8 -6 -8
-12z"/>
<path d="M4316 3947 c3 -10 9 -15 12 -12 3 3 0 11 -7 18 -10 9 -11 8 -5 -6z"/>
<path d="M5637 3940 c3 -11 9 -20 14 -20 11 0 11 3 3 24 -9 23 -23 20 -17 -4z"/>
<path d="M7120 3949 c0 -5 5 -7 10 -4 6 3 10 8 10 11 0 2 -4 4 -10 4 -5 0 -10
-5 -10 -11z"/>
<path d="M5362 3925 c0 -16 2 -22 5 -12 2 9 2 23 0 30 -3 6 -5 -1 -5 -18z"/>
<path d="M5761 3925 c-1 -32 10 -65 20 -59 5 3 9 19 9 35 0 17 -4 28 -9 25 -5
-4 -12 0 -14 6 -3 7 -6 4 -6 -7z"/>
<path d="M4413 3915 c0 -11 4 -12 14 -4 7 6 13 13 13 15 0 2 -6 4 -13 4 -8 0
-14 -7 -14 -15z"/>
<path d="M4695 3917 c-4 -10 -5 -21 -1 -24 10 -10 18 4 13 24 -4 17 -4 17 -12
0z"/>
<path d="M5714 3918 c-4 -6 -1 -16 7 -22 8 -6 20 -22 26 -36 11 -24 12 -24 12
-3 1 12 -6 29 -15 37 -8 9 -12 20 -9 26 3 5 2 10 -4 10 -5 0 -13 -5 -17 -12z"/>
<path d="M5688 3895 c-4 -16 -2 -34 3 -39 16 -17 22 3 12 36 l-9 33 -6 -30z"/>
<path d="M4557 3890 c3 -11 7 -20 9 -20 2 0 4 9 4 20 0 11 -4 20 -9 20 -5 0
-7 -9 -4 -20z"/>
<path d="M5421 3894 c0 -11 3 -14 6 -6 3 7 2 16 -1 19 -3 4 -6 -2 -5 -13z"/>
<path d="M5654 3889 c-3 -6 -1 -16 5 -22 8 -8 11 -5 11 11 0 24 -5 28 -16 11z"/>
<path d="M4556 3846 c3 -9 11 -16 16 -16 13 0 5 23 -10 28 -7 2 -10 -2 -6 -12z"/>
<path d="M5371 3834 c0 -11 3 -14 6 -6 3 7 2 16 -1 19 -3 4 -6 -2 -5 -13z"/>
<path d="M5427 3836 c-6 -16 2 -28 14 -20 12 7 11 34 0 34 -5 0 -11 -6 -14
-14z"/>
<path d="M5580 3834 c0 -8 5 -12 10 -9 6 3 10 10 10 16 0 5 -4 9 -10 9 -5 0
-10 -7 -10 -16z"/>
<path d="M6780 3839 c0 -5 5 -7 10 -4 6 3 10 8 10 11 0 2 -4 4 -10 4 -5 0 -10
-5 -10 -11z"/>
<path d="M5195 3810 c-3 -5 -2 -10 4 -10 5 0 13 5 16 10 3 6 2 10 -4 10 -5 0
-13 -4 -16 -10z"/>
<path d="M5342 3800 c0 -14 2 -19 5 -12 2 6 2 18 0 25 -3 6 -5 1 -5 -13z"/>
<path d="M5390 3811 c0 -4 3 -11 8 -15 4 -4 7 -13 7 -18 0 -6 6 -13 13 -16 11
-3 12 0 3 16 -6 10 -8 22 -5 24 3 3 -2 8 -11 11 -8 4 -15 3 -15 -2z"/>
<path d="M5505 3809 c-11 -17 1 -21 15 -4 8 9 8 15 2 15 -6 0 -14 -5 -17 -11z"/>
<path d="M5370 3786 c0 -9 5 -16 10 -16 6 0 10 4 10 9 0 6 -4 13 -10 16 -5 3
-10 -1 -10 -9z"/>
<path d="M5621 3784 c0 -11 3 -14 6 -6 3 7 2 16 -1 19 -3 4 -6 -2 -5 -13z"/>
<path d="M5470 3769 c0 -11 4 -18 10 -14 5 3 7 12 3 20 -7 21 -13 19 -13 -6z"/>
<path d="M5830 3779 c0 -5 5 -7 10 -4 6 3 10 8 10 11 0 2 -4 4 -10 4 -5 0 -10
-5 -10 -11z"/>
<path d="M5122 3750 c0 -14 2 -19 5 -12 2 6 2 18 0 25 -3 6 -5 1 -5 -13z"/>
<path d="M5511 3754 c0 -11 3 -14 6 -6 3 7 2 16 -1 19 -3 4 -6 -2 -5 -13z"/>
<path d="M5565 3760 c-3 -5 -1 -10 4 -10 6 0 11 5 11 10 0 6 -2 10 -4 10 -3 0
-8 -4 -11 -10z"/>
<path d="M4321 3744 c0 -11 3 -14 6 -6 3 7 2 16 -1 19 -3 4 -6 -2 -5 -13z"/>
<path d="M5643 3753 c-9 -3 -10 -10 -4 -21 5 -9 9 -20 10 -24 1 -5 2 -11 2
-15 1 -5 0 -16 -1 -27 -1 -11 3 -15 9 -12 11 7 15 -5 12 -31 -1 -7 3 -13 9
-13 13 0 13 5 -10 74 -11 32 -17 62 -14 67 6 10 5 10 -13 2z"/>
<path d="M5670 3734 c0 -8 5 -12 10 -9 6 3 10 10 10 16 0 5 -4 9 -10 9 -5 0
-10 -7 -10 -16z"/>
<path d="M5381 3730 c-2 -3 -5 -18 -7 -35 -4 -23 -2 -27 6 -19 7 7 10 22 7 35
-2 13 -5 22 -6 19z"/>
<path d="M5404 3716 c-8 -22 3 -33 18 -18 9 9 9 15 0 24 -9 9 -13 7 -18 -6z"/>
<path d="M5462 3719 c2 -7 10 -15 17 -17 8 -3 12 1 9 9 -2 7 -10 15 -17 17 -8
3 -12 -1 -9 -9z"/>
<path d="M5600 3721 c0 -5 5 -13 10 -16 6 -3 10 -2 10 4 0 5 -4 13 -10 16 -5
3 -10 2 -10 -4z"/>
<path d="M4351 3703 c7 -10 15 -20 16 -22 2 -2 3 3 3 11 0 9 -7 19 -16 22 -15
6 -15 4 -3 -11z"/>
<path d="M5284 3705 c4 -24 16 -30 16 -7 0 12 -4 22 -9 22 -5 0 -8 -7 -7 -15z"/>
<path d="M5312 3700 c0 -14 2 -19 5 -12 2 6 2 18 0 25 -3 6 -5 1 -5 -13z"/>
<path d="M5330 3705 c0 -8 4 -15 10 -15 5 0 7 7 4 15 -4 8 -8 15 -10 15 -2 0
-4 -7 -4 -15z"/>
<path d="M5445 3695 c3 -16 6 -41 6 -55 0 -22 1 -23 10 -7 8 14 6 28 -6 55
-14 34 -15 34 -10 7z"/>
<path d="M5232 3690 c0 -14 2 -19 5 -12 2 6 2 18 0 25 -3 6 -5 1 -5 -13z"/>
<path d="M4650 3661 c0 -16 5 -33 10 -36 6 -3 10 -15 10 -27 0 -17 -2 -18 -15
-8 -9 7 -18 10 -22 6 -4 -3 2 -12 12 -20 15 -11 21 -11 36 2 15 13 16 18 2 58
-18 54 -33 65 -33 25z"/>
<path d="M4620 3661 c0 -11 5 -23 10 -26 6 -3 10 3 10 14 0 11 -4 23 -10 26
-5 3 -10 -3 -10 -14z"/>
<path d="M4680 3673 c0 -7 5 -15 10 -18 6 -3 10 -14 10 -24 0 -23 26 -75 45
-91 9 -8 6 10 -11 52 -25 61 -54 105 -54 81z"/>
<path d="M4730 3650 c0 -11 4 -20 9 -20 6 0 9 9 8 20 -1 11 -5 20 -9 20 -4 0
-8 -9 -8 -20z"/>
<path d="M4882 3650 c0 -14 2 -19 5 -12 2 6 2 18 0 25 -3 6 -5 1 -5 -13z"/>
<path d="M5740 3654 c0 -12 21 -44 29 -44 5 0 6 11 3 25 -2 14 -11 25 -18 25
-8 0 -14 -3 -14 -6z"/>
<path d="M4800 3631 c0 -25 6 -27 13 -6 4 8 2 17 -3 20 -6 4 -10 -3 -10 -14z"/>
<path d="M5416 3635 c-3 -8 3 -33 13 -55 17 -39 19 -40 23 -16 3 14 1 23 -3
20 -8 -5 -13 16 -10 43 2 18 -16 25 -23 8z"/>
<path d="M5631 3645 c1 -19 18 -51 18 -35 0 8 -4 22 -9 30 -5 8 -9 11 -9 5z"/>
<path d="M5706 3636 c8 -22 36 -30 32 -9 -2 10 -11 19 -21 21 -12 2 -15 -1
-11 -12z"/>
<path d="M5803 3633 c-18 -7 -16 -16 5 -30 17 -10 18 -8 14 13 -2 13 -5 24 -6
23 0 0 -7 -3 -13 -6z"/>
<path d="M5845 3630 c3 -5 1 -10 -5 -10 -6 0 -8 -4 -5 -10 10 -16 21 -11 22
10 1 11 -3 20 -8 20 -6 0 -7 -4 -4 -10z"/>
<path d="M5383 3600 c4 -25 11 -46 27 -85 5 -11 11 -29 13 -40 3 -11 5 -3 6
18 1 27 -3 36 -11 31 -8 -5 -9 0 -5 15 3 14 -2 35 -14 54 -18 30 -19 30 -16 7z"/>
<path d="M5348 3599 c16 -17 15 -24 -2 -42 -13 -13 -13 -17 -1 -33 13 -18 14
-18 8 4 -3 13 -1 22 6 22 6 0 11 -13 11 -29 0 -17 5 -33 10 -36 6 -4 8 -11 5
-16 -4 -5 -3 -14 1 -21 5 -8 11 -2 16 17 6 22 4 33 -7 41 -8 6 -13 13 -10 15
8 9 -23 83 -36 87 -11 4 -12 2 -1 -9z"/>
<path d="M5237 3570 c3 -11 7 -20 9 -20 2 0 4 9 4 20 0 11 -4 20 -9 20 -5 0
-7 -9 -4 -20z"/>
<path d="M4280 3560 c0 -19 3 -21 12 -12 9 9 9 15 0 24 -9 9 -12 7 -12 -12z"/>
<path d="M4320 3570 c-8 -5 -11 -12 -7 -17 5 -4 12 -1 17 7 7 10 10 11 10 3 0
-7 5 -13 11 -13 13 0 7 22 -7 27 -5 1 -16 -2 -24 -7z"/>
<path d="M4375 3571 c-3 -5 -1 -12 4 -15 5 -3 11 1 15 9 6 16 -9 21 -19 6z"/>
<path d="M4443 3573 c-18 -7 -16 -43 1 -43 10 0 12 7 8 22 -4 16 -2 19 8 13 9
-5 11 -4 6 3 -4 7 -8 12 -9 11 -1 0 -8 -3 -14 -6z"/>
<path d="M5861 3570 c0 -8 4 -22 9 -30 12 -18 12 -2 0 25 -6 13 -9 15 -9 5z"/>
<path d="M4901 3534 c0 -11 3 -14 6 -6 3 7 2 16 -1 19 -3 4 -6 -2 -5 -13z"/>
<path d="M5312 3516 c1 -20 6 -36 10 -36 12 0 10 58 -2 65 -7 4 -10 -6 -8 -29z"/>
<path d="M5815 3540 c3 -5 14 -10 23 -10 15 0 15 2 2 10 -20 13 -33 13 -25 0z"/>
<path d="M4331 3514 c0 -11 3 -14 6 -6 3 7 2 16 -1 19 -3 4 -6 -2 -5 -13z"/>
<path d="M5830 3511 c0 -5 7 -11 14 -14 10 -4 13 -1 9 9 -6 15 -23 19 -23 5z"/>
<path d="M5352 3467 c6 -21 15 -37 19 -37 5 0 3 12 -3 28 -19 43 -28 49 -16 9z"/>
<path d="M5285 3470 c3 -5 8 -10 11 -10 2 0 4 5 4 10 0 6 -5 10 -11 10 -5 0
-7 -4 -4 -10z"/>
<path d="M5251 3434 c0 -11 3 -14 6 -6 3 7 2 16 -1 19 -3 4 -6 -2 -5 -13z"/>
<path d="M4854 3392 c4 -7 2 -12 -3 -12 -6 0 -11 -4 -11 -10 0 -15 17 -12 23
5 4 8 1 17 -5 21 -7 4 -8 3 -4 -4z"/>
<path d="M5751 3364 c0 -11 3 -14 6 -6 3 7 2 16 -1 19 -3 4 -6 -2 -5 -13z"/>
<path d="M4241 3354 c0 -11 3 -14 6 -6 3 7 2 16 -1 19 -3 4 -6 -2 -5 -13z"/>
<path d="M5870 3330 c1 -17 28 -56 34 -49 3 3 -4 18 -14 34 -11 17 -20 23 -20
15z"/>
<path d="M4241 3294 c0 -11 3 -14 6 -6 3 7 2 16 -1 19 -3 4 -6 -2 -5 -13z"/>
<path d="M4836 3285 c4 -8 8 -15 10 -15 2 0 4 7 4 15 0 8 -4 15 -10 15 -5 0
-7 -7 -4 -15z"/>
<path d="M4250 3188 c0 -6 6 -8 14 -5 8 3 17 2 20 -4 2 -5 3 -4 2 2 -3 15 -36
21 -36 7z"/>
<path d="M4240 3155 c0 -8 2 -15 4 -15 2 0 6 7 10 15 3 8 1 15 -4 15 -6 0 -10
-7 -10 -15z"/>
<path d="M4223 3125 c0 -22 2 -30 4 -17 2 12 2 30 0 40 -3 9 -5 -1 -4 -23z"/>
<path d="M4362 3075 c0 -16 2 -22 5 -12 2 9 2 23 0 30 -3 6 -5 -1 -5 -18z"/>
<path d="M5487 3059 c4 -13 8 -18 11 -10 2 7 -1 18 -6 23 -8 8 -9 4 -5 -13z"/>
<path d="M4252 3035 c0 -16 2 -22 5 -12 2 9 2 23 0 30 -3 6 -5 -1 -5 -18z"/>
<path d="M5726 3045 c4 -8 10 -13 14 -10 10 6 39 -55 33 -71 -3 -8 3 -12 15
-11 19 1 20 27 1 27 -5 0 -9 7 -9 15 0 28 -23 65 -41 65 -12 0 -16 -5 -13 -15z"/>
<path d="M5797 3028 c5 -37 23 -78 34 -78 4 0 6 10 3 23 -3 12 -7 29 -8 37 -4
23 -17 50 -25 50 -4 0 -6 -15 -4 -32z"/>
<path d="M5927 3049 c7 -7 15 -10 18 -7 3 3 -2 9 -12 12 -14 6 -15 5 -6 -5z"/>
<path d="M5640 3040 c0 -5 5 -10 11 -10 5 0 7 5 4 10 -3 6 -8 10 -11 10 -2 0
-4 -4 -4 -10z"/>
<path d="M5840 3022 c0 -20 4 -31 10 -27 6 3 10 -2 10 -13 0 -10 6 -19 13 -19
18 0 11 36 -14 67 l-19 25 0 -33z"/>
<path d="M5945 3020 c-3 -5 1 -10 10 -10 9 0 13 5 10 10 -3 6 -8 10 -10 10 -2
0 -7 -4 -10 -10z"/>
<path d="M5403 3003 c3 -12 0 -24 -7 -26 -8 -3 -8 -8 1 -17 16 -17 28 24 13
47 -10 16 -11 16 -7 -4z"/>
<path d="M5432 3008 c5 -15 28 -23 28 -10 0 5 -7 13 -16 16 -10 4 -14 1 -12
-6z"/>
<path d="M5911 3004 c0 -11 3 -14 6 -6 3 7 2 16 -1 19 -3 4 -6 -2 -5 -13z"/>
<path d="M5266 2986 c5 -20 4 -27 -4 -22 -8 5 -10 2 -6 -8 5 -14 8 -14 21 -1
12 13 12 18 -2 37 -16 23 -16 23 -9 -6z"/>
<path d="M5905 2970 c3 -5 13 -10 21 -10 8 0 14 5 14 10 0 6 -9 10 -21 10 -11
0 -17 -4 -14 -10z"/>
<path d="M6396 2967 c3 -10 9 -15 12 -12 3 3 0 11 -7 18 -10 9 -11 8 -5 -6z"/>
<path d="M5461 2944 c0 -11 3 -14 6 -6 3 7 2 16 -1 19 -3 4 -6 -2 -5 -13z"/>
<path d="M5496 2952 c-3 -5 1 -15 9 -22 16 -14 20 -3 6 19 -5 8 -11 9 -15 3z"/>
<path d="M5541 2943 c7 -12 15 -20 18 -17 3 2 -3 12 -13 22 -17 16 -18 16 -5
-5z"/>
<path d="M5381 2934 c0 -11 3 -14 6 -6 3 7 2 16 -1 19 -3 4 -6 -2 -5 -13z"/>
<path d="M5830 2930 c0 -6 7 -10 15 -10 8 0 15 2 15 4 0 2 -7 6 -15 10 -8 3
-15 1 -15 -4z"/>
<path d="M4610 2905 c-7 -8 -16 -12 -22 -9 -5 3 -15 0 -23 -6 -8 -6 -19 -9
-25 -5 -5 3 -10 1 -10 -5 0 -7 -6 -10 -12 -7 -7 2 -25 -4 -39 -14 -14 -10 -29
-16 -32 -12 -4 3 -13 0 -22 -7 -8 -7 -24 -10 -35 -7 -11 3 -18 2 -15 -3 7 -12
-19 -19 -96 -26 -53 -5 -75 -12 -94 -30 -14 -13 -34 -28 -44 -34 -19 -9 -36
-50 -21 -50 4 0 13 7 20 15 20 24 90 53 193 80 50 13 108 29 127 35 60 17 108
13 134 -13 30 -30 41 -119 26 -196 -10 -55 -8 -83 4 -36 6 25 38 64 54 66 12
1 16 9 4 9 -7 0 -12 5 -12 10 0 6 3 9 8 9 23 -4 34 3 28 17 -3 8 -2 13 3 9 19
-11 42 7 36 29 -4 11 -3 16 2 11 5 -7 18 -7 41 0 l33 11 -25 12 c-15 6 -26 18
-26 26 0 8 -6 17 -12 20 -10 5 -10 7 0 12 17 8 15 25 -3 18 -9 -4 -25 4 -38
18 -13 13 -28 23 -35 20 -13 -4 -42 21 -42 37 0 16 -15 13 -30 -4z"/>
<path d="M6420 2901 c0 -5 7 -15 17 -22 15 -13 15 -12 4 9 -12 23 -21 28 -21
13z"/>
<path d="M4330 2876 c0 -2 7 -9 15 -16 9 -7 15 -8 15 -2 0 5 -7 12 -15 16 -8
3 -15 4 -15 2z"/>
<path d="M4720 2870 c0 -5 5 -10 10 -10 6 0 10 5 10 10 0 6 -4 10 -10 10 -5 0
-10 -4 -10 -10z"/>
<path d="M5406 2855 c-3 -8 -1 -15 4 -15 6 0 10 7 10 15 0 8 -2 15 -4 15 -2 0
-6 -7 -10 -15z"/>
<path d="M4273 2832 c1 -14 5 -18 11 -12 7 7 6 14 -1 21 -9 9 -12 7 -10 -9z"/>
<path d="M5510 2820 c0 -5 4 -10 9 -10 6 0 13 5 16 10 3 6 -1 10 -9 10 -9 0
-16 -4 -16 -10z"/>
<path d="M5125 2759 c-4 -6 -5 -12 -2 -15 2 -3 7 2 10 11 7 17 1 20 -8 4z"/>
<path d="M7140 2748 c0 -4 7 -8 15 -8 8 0 15 4 15 8 0 5 -7 9 -15 9 -8 0 -15
-4 -15 -9z"/>
<path d="M5061 2723 c-10 -26 -10 -27 4 -9 8 11 15 23 15 28 0 15 -7 8 -19
-19z"/>
<path d="M5747 2730 c-4 -16 -1 -30 8 -40 13 -12 15 -12 14 0 -1 8 -4 26 -8
40 l-7 25 -7 -25z"/>
<path d="M5770 2738 c0 -4 4 -8 10 -8 5 0 16 -13 25 -30 17 -32 59 -63 49 -35
-4 8 -10 15 -15 15 -5 0 -15 15 -23 33 -12 30 -46 48 -46 25z"/>
<path d="M5136 2725 c-9 -26 -7 -32 5 -12 6 10 9 21 6 23 -2 3 -7 -2 -11 -11z"/>
<path d="M7194 2718 c3 -7 9 -21 12 -30 4 -10 11 -18 16 -18 6 0 7 7 4 16 -3
9 -6 19 -6 24 0 4 -7 11 -16 14 -10 4 -14 2 -10 -6z"/>
<path d="M5830 2715 c0 -3 8 -14 18 -24 9 -11 23 -27 30 -35 7 -9 17 -16 22
-16 9 0 8 26 -2 36 -4 3 -5 11 -4 17 2 7 1 9 -1 5 -3 -5 -14 -1 -26 7 -22 15
-37 19 -37 10z"/>
<path d="M6471 2704 c0 -11 3 -14 6 -6 3 7 2 16 -1 19 -3 4 -6 -2 -5 -13z"/>
<path d="M6506 2706 c3 -9 11 -16 16 -16 13 0 5 23 -10 28 -7 2 -10 -2 -6 -12z"/>
<path d="M5710 2699 c0 -5 5 -7 10 -4 6 3 10 8 10 11 0 2 -4 4 -10 4 -5 0 -10
-5 -10 -11z"/>
<path d="M7165 2700 c-3 -5 -1 -10 5 -10 6 0 8 -5 4 -12 -4 -7 -3 -8 4 -4 6 4
9 13 5 21 -6 18 -10 19 -18 5z"/>
<path d="M7241 2694 c0 -11 3 -14 6 -6 3 7 2 16 -1 19 -3 4 -6 -2 -5 -13z"/>
<path d="M4734 2685 c-17 -13 -16 -14 14 -4 33 11 41 19 19 19 -7 0 -22 -7
-33 -15z"/>
<path d="M7334 2684 c3 -9 6 -20 6 -25 0 -6 4 -8 9 -5 12 8 2 46 -11 46 -6 0
-7 -7 -4 -16z"/>
<path d="M5916 2677 c3 -10 9 -15 12 -12 3 3 0 11 -7 18 -10 9 -11 8 -5 -6z"/>
<path d="M6485 2680 c-3 -5 -1 -10 4 -10 6 0 11 5 11 10 0 6 -2 10 -4 10 -3 0
-8 -4 -11 -10z"/>
<path d="M6348 2668 c5 -5 16 -8 23 -6 8 3 3 7 -10 11 -17 4 -21 3 -13 -5z"/>
<path d="M6397 2673 c-3 -4 3 -19 14 -32 18 -22 19 -22 19 -3 0 21 -25 48 -33
35z"/>
<path d="M7260 2671 c0 -6 5 -13 10 -16 6 -3 10 1 10 9 0 9 -4 16 -10 16 -5 0
-10 -4 -10 -9z"/>
<path d="M6110 2660 c0 -5 5 -10 11 -10 5 0 7 5 4 10 -3 6 -8 10 -11 10 -2 0
-4 -4 -4 -10z"/>
<path d="M6450 2656 c0 -9 7 -16 16 -16 17 0 14 22 -4 28 -7 2 -12 -3 -12 -12z"/>
<path d="M7128 2663 c7 -3 16 -2 19 1 4 3 -2 6 -13 5 -11 0 -14 -3 -6 -6z"/>
<path d="M7300 2654 c0 -8 5 -12 10 -9 6 3 10 10 10 16 0 5 -4 9 -10 9 -5 0
-10 -7 -10 -16z"/>
<path d="M6504 2649 c-3 -6 -1 -16 5 -22 8 -8 11 -5 11 11 0 24 -5 28 -16 11z"/>
<path d="M7180 2650 c0 -5 5 -10 11 -10 5 0 7 5 4 10 -3 6 -8 10 -11 10 -2 0
-4 -4 -4 -10z"/>
<path d="M5930 2639 c0 -4 9 -9 20 -12 12 -3 20 0 20 7 0 6 -9 12 -20 12 -11
0 -20 -3 -20 -7z"/>
<path d="M6541 2639 c-1 -9 6 -19 14 -23 11 -4 15 1 15 17 0 16 -3 18 -9 8 -7
-11 -9 -11 -14 0 -4 10 -6 10 -6 -2z"/>
<path d="M6270 2630 c0 -6 7 -10 15 -10 8 0 15 2 15 4 0 2 -7 6 -15 10 -8 3
-15 1 -15 -4z"/>
<path d="M6225 2620 c3 -5 8 -10 11 -10 2 0 4 5 4 10 0 6 -5 10 -11 10 -5 0
-7 -4 -4 -10z"/>
<path d="M6370 2619 c0 -5 5 -7 10 -4 6 3 10 8 10 11 0 2 -4 4 -10 4 -5 0 -10
-5 -10 -11z"/>
<path d="M5187 2593 c-4 -3 -7 -11 -7 -17 0 -6 5 -5 12 2 6 6 9 14 7 17 -3 3
-9 2 -12 -2z"/>
<path d="M6525 2590 c3 -5 8 -10 11 -10 2 0 4 5 4 10 0 6 -5 10 -11 10 -5 0
-7 -4 -4 -10z"/>
<path d="M5270 2566 c28 -17 50 -21 35 -7 -6 5 -21 12 -35 15 l-25 7 25 -15z"/>
<path d="M5375 2560 c3 -5 8 -10 11 -10 2 0 4 5 4 10 0 6 -5 10 -11 10 -5 0
-7 -4 -4 -10z"/>
<path d="M5141 2519 c-11 -33 -14 -56 -6 -48 12 13 34 79 26 79 -5 0 -14 -14
-20 -31z"/>
<path d="M5367 2523 c-9 -8 22 -43 37 -43 7 0 12 12 13 28 2 25 1 26 -7 5 -5
-13 -12 -23 -15 -23 -4 0 -4 4 -1 9 7 11 -18 33 -27 24z"/>
<path d="M5203 2505 c-9 -24 1 -27 15 -5 8 13 8 20 2 20 -6 0 -13 -7 -17 -15z"/>
<path d="M5339 2491 c27 -25 43 -27 35 -6 -4 8 -10 15 -14 15 -5 0 -17 3 -27
6 -14 4 -13 1 6 -15z"/>
<path d="M5162 2480 c0 -14 2 -19 5 -12 2 6 2 18 0 25 -3 6 -5 1 -5 -13z"/>
<path d="M5290 2495 c0 -5 5 -17 10 -25 5 -8 10 -10 10 -5 0 6 -5 17 -10 25
-5 8 -10 11 -10 5z"/>
<path d="M5601 2493 c-1 -7 -4 -12 -8 -12 -20 3 -24 -2 -13 -16 7 -8 16 -15
21 -15 5 0 6 7 3 15 -11 27 5 16 21 -16 19 -36 25 -35 18 4 -3 15 -11 27 -18
27 -7 0 -16 6 -18 13 -4 10 -6 10 -6 0z"/>
<path d="M5475 2480 c3 -5 8 -10 11 -10 2 0 4 5 4 10 0 6 -5 10 -11 10 -5 0
-7 -4 -4 -10z"/>
<path d="M5520 2475 c7 -8 20 -15 28 -15 13 0 12 3 -4 15 -25 19 -40 19 -24 0z"/>
<path d="M5663 2476 c9 -7 17 -19 17 -26 0 -7 3 -11 6 -7 11 11 -7 47 -24 47
-16 -1 -16 -2 1 -14z"/>
<path d="M5700 2471 c0 -4 18 -27 40 -52 l41 -43 -19 42 c-10 23 -22 45 -26
49 -10 10 -36 13 -36 4z"/>
<path d="M5905 2450 c3 -5 8 -10 11 -10 2 0 4 5 4 10 0 6 -5 10 -11 10 -5 0
-7 -4 -4 -10z"/>
<path d="M6050 2429 c7 -11 14 -19 16 -16 7 7 -7 37 -17 37 -6 0 -5 -9 1 -21z"/>
<path d="M6090 2440 c0 -5 5 -10 11 -10 5 0 7 5 4 10 -3 6 -8 10 -11 10 -2 0
-4 -4 -4 -10z"/>
<path d="M5836 2413 c8 -35 13 -43 24 -43 11 0 -8 58 -21 66 -6 3 -7 -6 -3
-23z"/>
<path d="M5930 2423 c0 -13 5 -23 10 -23 13 0 13 11 0 30 -8 12 -10 11 -10 -7z"/>
<path d="M6096 2393 c-6 -14 -5 -15 5 -6 7 7 10 15 7 18 -3 3 -9 -2 -12 -12z"/>
<path d="M5100 2376 c0 -2 7 -9 15 -16 13 -11 14 -10 9 4 -5 14 -24 23 -24 12z"/>
<path d="M6270 2362 c0 -12 19 -26 26 -19 2 2 -2 10 -11 17 -9 8 -15 8 -15 2z"/>
<path d="M6420 2359 c0 -5 5 -7 10 -4 6 3 10 8 10 11 0 2 -4 4 -10 4 -5 0 -10
-5 -10 -11z"/>
<path d="M6495 2360 c3 -5 8 -10 11 -10 2 0 4 5 4 10 0 6 -5 10 -11 10 -5 0
-7 -4 -4 -10z"/>
<path d="M6550 2350 c0 -5 5 -10 11 -10 5 0 7 5 4 10 -3 6 -8 10 -11 10 -2 0
-4 -4 -4 -10z"/>
<path d="M6258 2325 c5 -11 12 -27 15 -35 5 -13 6 -13 6 1 1 8 -6 24 -15 35
-15 19 -15 19 -6 -1z"/>
<path d="M6605 2331 c-6 -11 9 -23 19 -14 9 9 7 23 -3 23 -6 0 -12 -4 -16 -9z"/>
<path d="M6110 2296 c0 -8 5 -18 10 -21 6 -3 10 1 10 9 0 8 -4 18 -10 21 -5 3
-10 -1 -10 -9z"/>
<path d="M5391 2284 c0 -11 3 -14 6 -6 3 7 2 16 -1 19 -3 4 -6 -2 -5 -13z"/>
<path d="M6162 2284 c3 -17 21 -21 26 -6 1 5 -4 12 -13 16 -11 4 -15 1 -13
-10z"/>
<path d="M6206 2291 c-4 -7 -5 -15 -2 -18 9 -9 19 4 14 18 -4 11 -6 11 -12 0z"/>
<path d="M5161 2274 c0 -11 3 -14 6 -6 3 7 2 16 -1 19 -3 4 -6 -2 -5 -13z"/>
<path d="M5360 2281 c0 -6 4 -13 10 -16 6 -3 7 1 4 9 -7 18 -14 21 -14 7z"/>
<path d="M5580 2260 c0 -5 5 -10 11 -10 5 0 7 5 4 10 -3 6 -8 10 -11 10 -2 0
-4 -4 -4 -10z"/>
<path d="M5651 2236 c-8 -10 -8 -16 3 -25 11 -9 15 -6 18 14 6 28 -3 32 -21
11z"/>
<path d="M6730 2237 c0 -8 6 -20 14 -26 12 -10 13 -8 9 9 -7 25 -23 37 -23 17z"/>
<path d="M5121 2224 c0 -11 3 -14 6 -6 3 7 2 16 -1 19 -3 4 -6 -2 -5 -13z"/>
<path d="M5613 2228 c1 -7 12 -23 24 -37 12 -14 19 -29 16 -34 -4 -6 -1 -7 6
-3 9 6 8 13 -4 29 -9 12 -18 30 -22 40 -6 19 -24 24 -20 5z"/>
<path d="M5051 2214 c0 -11 3 -14 6 -6 3 7 2 16 -1 19 -3 4 -6 -2 -5 -13z"/>
<path d="M5487 2183 c3 -7 9 -13 15 -13 5 0 15 6 23 13 11 11 8 14 -15 14 -19
0 -26 -5 -23 -14z"/>
<path d="M5147 2134 c-4 -4 -6 -21 -6 -38 l1 -31 8 30 c4 17 8 24 9 16 0 -8 4
-12 7 -8 3 3 2 13 -3 22 -5 8 -12 12 -16 9z"/>
<path d="M5081 2044 c0 -11 3 -14 6 -6 3 7 2 16 -1 19 -3 4 -6 -2 -5 -13z"/>
<path d="M5111 2034 c0 -11 3 -14 6 -6 3 7 2 16 -1 19 -3 4 -6 -2 -5 -13z"/>
<path d="M5131 2014 c0 -11 3 -14 6 -6 3 7 2 16 -1 19 -3 4 -6 -2 -5 -13z"/>
<path d="M5696 1945 c-16 -12 -17 -17 -6 -30 20 -24 33 -18 25 12 -6 24 -5 25
11 12 15 -12 17 -12 13 0 -7 21 -21 23 -43 6z"/>
<path d="M5657 1929 c4 -13 8 -18 11 -10 2 7 -1 18 -6 23 -8 8 -9 4 -5 -13z"/>
<path d="M6550 1931 c0 -5 5 -13 10 -16 6 -3 10 -2 10 4 0 5 -4 13 -10 16 -5
3 -10 2 -10 -4z"/>
<path d="M6370 1914 c0 -8 5 -12 10 -9 6 4 8 11 5 16 -9 14 -15 11 -15 -7z"/>
<path d="M5796 1897 c3 -10 9 -15 12 -12 3 3 0 11 -7 18 -10 9 -11 8 -5 -6z"/>
<path d="M5171 1884 c0 -11 3 -14 6 -6 3 7 2 16 -1 19 -3 4 -6 -2 -5 -13z"/>
<path d="M6341 1874 c0 -11 3 -14 6 -6 3 7 2 16 -1 19 -3 4 -6 -2 -5 -13z"/>
<path d="M6470 1880 c0 -5 5 -10 11 -10 5 0 7 5 4 10 -3 6 -8 10 -11 10 -2 0
-4 -4 -4 -10z"/>
<path d="M6570 1872 c0 -12 19 -26 26 -19 2 2 -2 10 -11 17 -9 8 -15 8 -15 2z"/>
<path d="M6430 1866 c0 -2 7 -7 16 -10 8 -3 12 -2 9 4 -6 10 -25 14 -25 6z"/>
<path d="M6885 1860 c3 -5 8 -10 11 -10 2 0 4 5 4 10 0 6 -5 10 -11 10 -5 0
-7 -4 -4 -10z"/>
<path d="M6621 1844 c0 -11 3 -14 6 -6 3 7 2 16 -1 19 -3 4 -6 -2 -5 -13z"/>
<path d="M5195 1640 c3 -5 8 -10 11 -10 2 0 4 5 4 10 0 6 -5 10 -11 10 -5 0
-7 -4 -4 -10z"/>
<path d="M5202 1600 c0 -14 2 -19 5 -12 2 6 2 18 0 25 -3 6 -5 1 -5 -13z"/>
<path d="M5172 1560 c0 -14 2 -19 5 -12 2 6 2 18 0 25 -3 6 -5 1 -5 -13z"/>
<path d="M5181 1474 c0 -11 3 -14 6 -6 3 7 2 16 -1 19 -3 4 -6 -2 -5 -13z"/>
<path d="M5200 1186 c0 -8 4 -17 9 -20 5 -4 7 3 4 14 -6 23 -13 26 -13 6z"/>
<path d="M5060 1176 c0 -8 4 -17 9 -20 5 -4 7 3 4 14 -6 23 -13 26 -13 6z"/>
<path d="M5100 1129 c10 -56 34 -79 25 -24 -9 54 -13 65 -23 65 -5 0 -6 -18
-2 -41z"/>
<path d="M4991 1144 c0 -11 3 -14 6 -6 3 7 2 16 -1 19 -3 4 -6 -2 -5 -13z"/>
<path d="M5035 1121 c3 -18 5 -42 5 -53 0 -10 5 -16 10 -13 14 9 12 34 -6 70
l-14 30 5 -34z"/>
<path d="M5070 1104 c0 -8 5 -12 10 -9 6 4 8 11 5 16 -9 14 -15 11 -15 -7z"/>
<path d="M5015 1051 c3 -24 10 -52 16 -63 19 -36 18 -13 -1 47 -19 58 -20 58
-15 16z"/>
<path d="M5230 1060 c0 -5 5 -10 11 -10 5 0 7 5 4 10 -3 6 -8 10 -11 10 -2 0
-4 -4 -4 -10z"/>
<path d="M4722 1020 c0 -14 2 -19 5 -12 2 6 2 18 0 25 -3 6 -5 1 -5 -13z"/>
<path d="M5055 1015 c8 -36 22 -53 22 -28 0 10 -7 27 -15 38 -13 19 -14 18 -7
-10z"/>
<path d="M5240 1036 c0 -2 7 -7 16 -10 8 -3 12 -2 9 4 -6 10 -25 14 -25 6z"/>
<path d="M5001 1014 c0 -11 3 -14 6 -6 3 7 2 16 -1 19 -3 4 -6 -2 -5 -13z"/>
<path d="M5356 995 c4 -8 8 -15 10 -15 2 0 4 7 4 15 0 8 -4 15 -10 15 -5 0 -7
-7 -4 -15z"/>
<path d="M5180 983 c0 -10 5 -25 10 -33 8 -12 10 -9 10 12 0 15 -4 30 -10 33
-5 3 -10 -2 -10 -12z"/>
<path d="M4740 980 c0 -5 -7 -7 -15 -4 -8 4 -15 1 -15 -7 0 -7 3 -9 7 -6 3 4
12 2 20 -4 10 -9 13 -7 13 10 0 11 -2 21 -5 21 -3 0 -5 -4 -5 -10z"/>
<path d="M5145 980 c-3 -6 -3 -20 1 -33 7 -21 7 -21 15 -2 4 11 8 26 8 33 1
14 -15 16 -24 2z"/>
<path d="M5000 956 c0 -14 4 -27 9 -30 5 -3 12 -26 15 -51 4 -25 12 -45 18
-45 5 0 8 6 5 14 -3 8 -11 41 -18 75 -12 61 -29 83 -29 37z"/>
<path d="M4717 934 c-3 -3 -3 -13 0 -21 5 -12 7 -12 14 -1 15 23 4 40 -14 22z"/>
<path d="M4747 913 c-4 -3 -7 -16 -6 -27 0 -20 1 -20 10 2 5 13 13 20 19 17 5
-3 10 -1 10 4 0 12 -23 15 -33 4z"/>
<path d="M5163 914 c3 -6 9 -26 12 -45 8 -49 28 -99 38 -99 5 0 6 8 2 18 -4 9
-9 35 -11 57 -3 22 -14 49 -26 60 -11 11 -18 15 -15 9z"/>
<path d="M5213 885 c-3 -9 -3 -18 -1 -21 3 -3 8 4 11 16 6 23 -1 27 -10 5z"/>
<path d="M5071 874 c0 -11 3 -14 6 -6 3 7 2 16 -1 19 -3 4 -6 -2 -5 -13z"/>
<path d="M4782 860 c0 -14 2 -19 5 -12 2 6 2 18 0 25 -3 6 -5 1 -5 -13z"/>
<path d="M4343 798 c0 -40 -1 -92 -4 -115 -2 -23 -1 -39 3 -37 5 3 8 11 8 19
0 7 12 23 27 35 l28 22 12 -30 c7 -16 19 -84 28 -151 25 -189 53 -248 130
-267 21 -5 25 -11 21 -28 -3 -11 -6 -25 -6 -29 0 -4 -10 4 -23 18 -24 29 -78
44 -159 45 -36 0 -50 5 -58 19 -14 27 -14 27 16 26 67 -1 55 77 -16 112 -41
19 -46 20 -54 5 -6 -10 -10 -58 -10 -109 -1 -60 -5 -96 -13 -105 -18 -17 -16
-38 4 -38 9 0 31 -11 50 -25 24 -19 35 -37 39 -66 6 -34 9 -38 23 -27 9 7 13
8 9 4 -9 -10 29 -46 47 -46 7 0 18 -7 25 -15 17 -21 37 -19 43 5 4 16 14 20
50 20 59 0 71 15 62 79 -6 42 -9 48 -26 44 -23 -6 -24 5 -3 35 9 13 26 22 40
22 23 0 24 -3 18 -35 -4 -24 -3 -35 6 -35 7 0 10 6 7 14 -6 14 21 32 31 21 3
-3 2 -5 -3 -5 -4 0 -2 -7 5 -15 10 -12 16 -13 26 -4 17 14 18 33 2 23 -9 -5
-9 -3 1 9 7 9 17 14 22 11 5 -3 9 1 10 8 0 7 5 3 11 -9 14 -29 22 -29 37 0 11
22 11 22 5 -3 -6 -22 -5 -23 9 -12 12 11 15 10 13 -5 0 -10 6 -18 14 -18 23 0
40 -18 26 -27 -8 -6 -7 -8 2 -8 7 0 10 -5 7 -10 -3 -6 -1 -10 4 -10 17 0 13
78 -3 87 -8 4 -15 11 -15 16 -1 4 -1 15 -2 25 -1 11 -4 8 -8 -8 -7 -24 -8 -23
-14 10 -4 19 -3 49 2 65 l9 30 2 -30 c1 -16 4 -24 7 -17 7 17 21 15 26 -6 3
-11 5 -9 6 8 1 20 3 22 11 10 7 -11 9 -7 7 15 -4 35 -26 79 -27 55 -1 -8 -8 3
-16 24 -8 23 -12 54 -8 75 4 29 3 33 -6 21 -10 -13 -11 -12 -6 3 3 10 6 24 6
30 0 7 4 6 10 -3 16 -24 11 49 -6 90 l-14 35 5 -40 4 -40 -14 35 -15 35 4 -44
c3 -30 2 -40 -5 -30 -7 11 -9 10 -10 -6 0 -15 -2 -16 -6 -5 -4 8 -13 21 -22
28 -13 10 -14 12 -1 10 8 -2 18 -7 22 -13 10 -14 8 34 -3 65 -8 22 -8 22 -5
-8 2 -28 0 -33 -15 -29 -13 3 -21 -3 -27 -23 -8 -22 -6 -30 10 -44 11 -10 18
-25 15 -35 -3 -14 1 -17 19 -13 16 3 21 9 17 21 -4 9 -3 13 1 10 9 -8 58 -200
53 -206 -3 -2 -8 8 -11 22 -4 14 -11 23 -16 20 -6 -3 -7 1 -4 10 8 21 -5 87
-16 80 -5 -3 -12 0 -16 6 -4 8 -3 9 4 5 7 -4 12 -1 12 7 0 7 -7 14 -15 14 -8
0 -15 -5 -15 -10 0 -5 -9 -7 -20 -4 -11 3 -20 0 -20 -5 0 -6 -6 -5 -15 2 -8 7
-12 16 -9 21 3 5 -2 6 -10 3 -9 -3 -16 -2 -16 4 0 17 30 23 37 7 4 -12 9 -13
19 -4 8 6 14 17 14 23 0 6 -5 4 -11 -4 -9 -13 -10 -12 -5 2 5 17 -9 35 -17 21
-2 -5 -2 -2 -1 5 2 6 -5 12 -16 12 -11 0 -20 -4 -20 -10 0 -5 -4 -10 -9 -10
-4 0 -8 20 -8 45 0 25 4 48 8 51 5 3 9 0 9 -5 0 -15 35 21 43 44 4 10 10 16
13 13 3 -3 -4 -29 -15 -57 -14 -37 -16 -53 -8 -58 7 -3 9 -3 5 2 -4 4 -2 17 4
29 7 11 11 25 10 30 -2 5 4 4 12 -4 11 -8 16 -9 16 -1 0 6 -4 11 -10 11 -5 0
-10 7 -10 16 0 8 4 12 10 9 13 -8 0 28 -14 37 -6 4 -16 -3 -23 -15 -12 -20
-12 -19 -7 11 5 26 3 32 -10 32 -22 0 -32 -28 -18 -50 9 -14 8 -19 -4 -24 -24
-9 -26 -8 -24 22 4 49 0 105 -6 100 -3 -4 -6 -51 -5 -105 0 -71 -3 -91 -10
-75 -5 13 -7 28 -3 33 3 5 -1 9 -8 9 -11 0 -10 2 0 9 11 7 11 9 -2 14 -9 4
-21 17 -26 29 -8 21 -9 20 -10 -12 -1 -19 -3 -45 -3 -58 -1 -14 -13 -30 -32
-40 -16 -9 -32 -20 -35 -23 -13 -15 -40 -18 -40 -4 0 8 8 19 18 25 16 11 16
11 -1 6 -14 -4 -22 5 -37 40 -11 25 -20 53 -20 62 0 31 -27 95 -44 104 -9 5
-16 14 -16 21 0 7 -14 25 -30 40 l-29 29 2 -74z m387 -97 c0 -6 -4 -13 -10
-16 -5 -3 -10 1 -10 9 0 9 5 16 10 16 6 0 10 -4 10 -9z m-145 -171 c-3 -5 -16
-10 -28 -9 -21 0 -21 1 -2 9 28 12 37 12 30 0z m222 -22 c-3 -8 -6 -5 -6 6 -1
11 2 17 5 13 3 -3 4 -12 1 -19z m-55 -78 c9 -29 11 -29 24 -13 7 10 14 13 14
6 0 -6 3 -20 6 -30 4 -13 3 -15 -4 -4 -17 24 -24 -7 -7 -38 22 -43 19 -48 -10
-17 -18 19 -24 34 -19 48 4 14 2 18 -5 14 -7 -5 -9 -1 -5 8 4 11 0 16 -10 16
-18 0 -19 2 -10 24 9 23 14 20 26 -14z m-9 -82 c-2 -5 2 -8 9 -8 11 0 11 -2 0
-9 -11 -6 -10 -11 3 -25 9 -9 11 -16 5 -16 -6 0 -8 -5 -5 -10 5 -8 11 -7 21 1
12 10 13 9 8 -5 -3 -9 -14 -16 -23 -16 -14 0 -14 -2 -1 -10 9 -5 19 -5 27 2
11 8 12 7 7 -6 -4 -11 -14 -16 -25 -13 -11 3 -19 2 -19 -3 0 -4 -8 -11 -17
-14 -17 -7 -17 -6 -1 10 13 13 14 22 6 48 -6 17 -15 36 -20 43 -6 7 -4 13 4
16 10 3 10 8 2 16 -6 7 -9 24 -6 39 l5 27 13 -30 c7 -16 10 -33 7 -37z m94 40
c-3 -8 -6 -5 -6 6 -1 11 2 17 5 13 3 -3 4 -12 1 -19z m-315 -15 c3 -16 9 -36
13 -45 4 -10 3 -18 -2 -18 -6 0 -15 17 -21 39 -14 46 -15 51 -3 51 5 0 11 -12
13 -27z m285 -25 c-3 -8 -6 -5 -6 6 -1 11 2 17 5 13 3 -3 4 -12 1 -19z m90
-20 c-3 -8 -6 -5 -6 6 -1 11 2 17 5 13 3 -3 4 -12 1 -19z m-75 -80 c-6 -6 -7
0 -4 19 5 21 7 23 10 9 2 -10 0 -22 -6 -28z m15 -30 c-3 -8 -6 -5 -6 6 -1 11
2 17 5 13 3 -3 4 -12 1 -19z"/>
<path d="M4761 848 c-1 -9 -4 -25 -7 -35 -6 -15 -4 -16 7 -5 20 19 29 15 30
-15 2 -27 2 -27 6 -4 3 15 -1 29 -9 35 -8 6 -17 18 -21 26 -4 12 -6 12 -6 -2z"/>
<path d="M5390 843 c0 -12 7 -29 16 -37 17 -18 28 -21 19 -6 -3 6 -13 22 -21
38 -13 24 -14 25 -14 5z"/>
<path d="M5154 843 c-16 -5 -5 -43 12 -43 15 0 16 6 6 31 -4 9 -12 14 -18 12z"/>
<path d="M5220 839 c0 -5 5 -7 10 -4 6 3 10 8 10 11 0 2 -4 4 -10 4 -5 0 -10
-5 -10 -11z"/>
<path d="M4601 824 c0 -11 3 -14 6 -6 3 7 2 16 -1 19 -3 4 -6 -2 -5 -13z"/>
<path d="M4812 815 c0 -16 2 -22 5 -12 2 9 2 23 0 30 -3 6 -5 -1 -5 -18z"/>
<path d="M5441 824 c0 -11 3 -14 6 -6 3 7 2 16 -1 19 -3 4 -6 -2 -5 -13z"/>
<path d="M5040 805 c0 -8 4 -15 10 -15 5 0 7 7 4 15 -4 8 -8 15 -10 15 -2 0
-4 -7 -4 -15z"/>
<path d="M5082 780 c6 -22 15 -37 20 -34 6 4 6 10 -1 17 -6 6 -11 19 -11 28 0
10 -4 20 -9 23 -5 3 -4 -12 1 -34z"/>
<path d="M4725 782 c-5 -4 -11 -17 -12 -29 -4 -30 32 -32 40 -2 4 16 3 18 -9
8 -11 -9 -14 -8 -14 4 0 8 6 18 13 20 6 3 8 6 2 6 -5 0 -14 -3 -20 -7z"/>
<path d="M5127 770 c3 -11 9 -20 14 -20 5 0 6 -6 3 -14 -6 -17 11 -53 18 -40
9 17 -13 94 -27 94 -8 0 -11 -7 -8 -20z"/>
<path d="M5166 765 c9 -40 22 -75 28 -75 10 0 -7 76 -21 90 -13 13 -13 11 -7
-15z"/>
<path d="M5420 760 c0 -19 3 -21 12 -12 9 9 9 15 0 24 -9 9 -12 7 -12 -12z"/>
<path d="M4821 754 c0 -11 3 -14 6 -6 3 7 2 16 -1 19 -3 4 -6 -2 -5 -13z"/>
<path d="M5031 744 c0 -11 3 -14 6 -6 3 7 2 16 -1 19 -3 4 -6 -2 -5 -13z"/>
<path d="M4960 739 c0 -8 7 -24 16 -35 14 -18 15 -18 8 6 -8 31 -24 50 -24 29z"/>
<path d="M4990 734 c0 -17 24 -74 32 -74 4 0 3 11 -2 24 -5 13 -7 26 -4 29 2
2 -2 10 -11 17 -8 7 -15 9 -15 4z"/>
<path d="M4831 704 c0 -11 3 -14 6 -6 3 7 2 16 -1 19 -3 4 -6 -2 -5 -13z"/>
<path d="M4811 685 c1 -19 18 -51 18 -35 0 8 -4 22 -9 30 -5 8 -9 11 -9 5z"/>
<path d="M5163 683 c-15 -5 -17 -23 -4 -23 5 0 11 7 15 15 3 8 4 15 3 14 -1 0
-8 -3 -14 -6z"/>
<path d="M4841 664 c0 -11 3 -14 6 -6 3 7 2 16 -1 19 -3 4 -6 -2 -5 -13z"/>
<path d="M5246 643 c11 -45 26 -71 32 -53 3 7 0 16 -6 18 -7 2 -12 17 -12 33
0 16 -5 29 -10 29 -6 0 -8 -11 -4 -27z"/>
<path d="M5134 623 c15 -55 18 -63 27 -63 13 0 11 17 -6 50 -17 33 -29 40 -21
13z"/>
<path d="M5211 630 c0 -8 9 -35 19 -60 10 -25 19 -36 19 -25 -1 23 -37 107
-38 85z"/>
<path d="M5395 623 c2 -10 4 -22 4 -26 1 -5 6 -5 11 -2 9 5 15 -23 11 -47 0
-5 7 -8 16 -8 13 0 14 3 5 12 -7 7 -12 20 -12 30 0 10 -7 21 -15 24 -8 4 -13
10 -10 14 3 5 1 11 -4 14 -5 4 -8 -2 -6 -11z"/>
<path d="M5035 620 c3 -5 8 -10 11 -10 2 0 4 5 4 10 0 6 -5 10 -11 10 -5 0 -7
-4 -4 -10z"/>
<path d="M5060 617 c0 -9 6 -22 14 -30 8 -8 19 -30 25 -48 l11 -34 -6 39 c-6
41 -44 104 -44 73z"/>
<path d="M5100 616 c0 -8 5 -18 10 -21 6 -3 10 3 10 14 0 12 -4 21 -10 21 -5
0 -10 -6 -10 -14z"/>
<path d="M5176 603 c9 -37 24 -53 24 -26 0 28 -10 53 -21 53 -5 0 -6 -12 -3
-27z"/>
<path d="M5436 612 c7 -4 14 -16 16 -27 2 -11 10 -19 16 -17 8 1 11 -7 9 -20
-2 -13 -2 -17 0 -10 3 6 9 12 14 12 6 0 -2 16 -17 35 -14 19 -31 35 -38 35 -8
0 -8 -2 0 -8z"/>
<path d="M4000 591 c-5 -11 -10 -32 -10 -48 0 -29 69 -192 83 -193 4 0 7 20 7
44 0 43 1 45 28 43 26 -2 27 0 26 43 -1 25 -2 51 -3 58 -1 7 -15 12 -34 12
-26 0 -36 6 -50 30 -21 35 -32 37 -47 11z"/>
<path d="M4881 600 c0 -8 4 -22 9 -30 12 -18 12 -2 0 25 -6 13 -9 15 -9 5z"/>
<path d="M5500 596 c0 -8 7 -16 15 -20 17 -6 18 -4 9 18 -8 20 -24 21 -24 2z"/>
<path d="M4700 583 c0 -13 5 -23 10 -23 13 0 13 11 0 30 -8 12 -10 11 -10 -7z"/>
<path d="M5046 572 c-3 -5 1 -15 9 -22 16 -14 20 -3 6 19 -5 8 -11 9 -15 3z"/>
<path d="M5115 557 c8 -29 32 -92 56 -146 11 -24 18 -46 15 -48 -6 -6 21 -63
30 -63 6 0 -4 65 -16 100 -35 105 -63 169 -76 174 -12 5 -14 1 -9 -17z"/>
<path d="M5187 473 c9 -27 22 -61 29 -78 7 -16 24 -66 39 -110 14 -44 28 -82
31 -84 10 -11 -10 70 -33 129 -14 36 -30 81 -35 100 -13 48 -31 90 -40 90 -4
0 0 -21 9 -47z"/>
<path d="M5445 499 c-4 -6 -3 -15 3 -21 6 -6 11 -4 15 6 7 18 -9 31 -18 15z"/>
<path d="M5047 460 c8 -60 35 -122 41 -96 2 10 -1 23 -7 29 -6 6 -11 19 -11
28 0 9 -7 32 -15 50 l-15 34 7 -45z"/>
<path d="M5115 472 c3 -39 27 -112 37 -112 12 0 10 26 -8 81 -19 57 -32 71
-29 31z"/>
<path d="M5221 483 c-1 -12 4 -25 9 -28 12 -7 12 2 0 30 -8 19 -9 19 -9 -2z"/>
<path d="M5270 470 c1 -8 10 -31 20 -50 20 -35 20 -35 14 -5 -8 35 -34 78 -34
55z"/>
<path d="M5081 448 c0 -7 8 -33 18 -57 13 -31 20 -39 24 -28 3 9 0 23 -9 31
-8 8 -14 19 -13 23 1 4 1 16 0 26 -1 19 -21 24 -20 5z"/>
<path d="M5250 459 c0 -4 7 -22 15 -40 8 -19 14 -27 14 -19 0 14 -28 72 -29
59z"/>
<path d="M5466 442 c-2 -4 -1 -14 5 -22 7 -12 9 -10 9 8 0 23 -5 28 -14 14z"/>
<path d="M5031 408 c-1 -21 4 -38 9 -38 12 0 12 27 0 55 -7 16 -9 13 -9 -17z"/>
<path d="M7630 428 c0 -22 -46 -62 -64 -55 -9 4 -18 2 -21 -3 -3 -4 -20 -7
-38 -6 -17 1 -38 -2 -44 -7 -8 -6 -18 -5 -27 2 -11 9 -16 9 -21 1 -4 -7 -16
-10 -26 -7 -10 3 -22 1 -25 -5 -3 -5 -15 -8 -25 -5 -10 3 -22 1 -25 -4 -9 -16
-34 -10 -34 9 -1 16 -1 16 -11 -1 -10 -18 -12 -18 -30 -1 -18 16 -19 16 -20
-2 0 -11 -3 -13 -6 -6 -7 18 -21 15 -25 -5 -3 -15 -15 -18 -68 -19 -38 -1 -68
3 -72 10 -5 7 -8 4 -8 -6 0 -21 -11 -23 -28 -6 -10 10 -15 10 -20 1 -5 -8 -13
-9 -22 -3 -20 13 -43 13 -35 0 3 -5 -2 -10 -12 -10 -10 0 -24 -4 -32 -9 -16
-10 -11 -29 51 -189 l40 -102 229 0 229 0 1 28 c1 15 1 34 0 42 -1 8 12 31 29
50 16 19 30 41 30 47 0 7 11 15 24 19 14 3 43 26 66 50 23 24 46 42 51 38 5
-3 22 8 39 24 43 43 155 94 225 102 59 7 54 12 -15 15 -19 0 -44 -3 -55 -9
-19 -9 -60 -14 -150 -19 -35 -2 -40 1 -40 20 0 11 -3 25 -7 29 -5 4 -8 1 -8
-8z"/>
<path d="M8035 430 c-4 -6 3 -10 14 -10 25 0 27 6 6 13 -8 4 -17 2 -20 -3z"/>
<path d="M5426 418 c3 -4 9 -8 15 -8 5 0 9 4 9 8 0 5 -7 9 -15 9 -8 0 -12 -4
-9 -9z"/>
<path d="M8080 420 c0 -5 4 -10 9 -10 6 0 13 5 16 10 3 6 -1 10 -9 10 -9 0
-16 -4 -16 -10z"/>
<path d="M5052 331 c2 -19 9 -36 16 -39 9 -3 11 4 6 25 -10 44 -26 54 -22 14z"/>
<path d="M4110 334 c-15 -5 -20 -70 -7 -91 4 -6 6 -34 6 -62 -1 -28 4 -57 10
-65 7 -8 52 -37 101 -65 66 -37 100 -51 129 -51 56 0 63 26 8 28 -45 2 -97 19
-97 32 0 5 -27 25 -60 45 -33 20 -61 44 -61 53 -1 9 -3 47 -4 83 -1 37 -5 71
-9 77 -3 6 0 13 6 15 15 6 0 6 -22 1z"/>
<path d="M5031 303 c-1 -17 4 -35 9 -38 12 -7 12 22 0 50 -7 17 -9 15 -9 -12z"/>
<path d="M5290 301 c0 -5 5 -13 10 -16 6 -3 10 -2 10 4 0 5 -4 13 -10 16 -5 3
-10 2 -10 -4z"/>
<path d="M6803 295 c0 -8 4 -12 9 -9 5 3 6 10 3 15 -9 13 -12 11 -12 -6z"/>
<path d="M5105 259 c7 -34 21 -57 29 -48 9 9 -10 73 -23 77 -10 3 -11 -4 -6
-29z"/>
<path d="M5228 279 c-3 -9 -2 -22 3 -30 5 -8 9 -24 9 -36 0 -13 5 -23 10 -23
14 0 12 39 -4 75 -9 22 -14 25 -18 14z"/>
<path d="M4921 264 c0 -11 3 -14 6 -6 3 7 2 16 -1 19 -3 4 -6 -2 -5 -13z"/>
<path d="M5081 260 c0 -14 4 -34 9 -45 8 -18 9 -18 9 5 0 14 -4 34 -9 45 -8
18 -9 18 -9 -5z"/>
<path d="M4072 250 c0 -14 2 -19 5 -12 2 6 2 18 0 25 -3 6 -5 1 -5 -13z"/>
<path d="M5356 230 c3 -14 10 -32 15 -40 7 -13 8 -13 8 0 0 8 -6 26 -15 40
l-15 25 7 -25z"/>
<path d="M5190 228 c0 -9 5 -20 10 -23 6 -4 9 -14 6 -23 -3 -10 2 -28 10 -42
15 -24 15 -24 9 19 -6 45 -35 102 -35 69z"/>
<path d="M6343 223 c-4 -9 -9 -10 -18 -3 -6 5 -14 7 -18 4 -3 -3 -18 -7 -34
-9 -15 -2 -45 -6 -65 -8 -24 -3 -38 -1 -38 6 0 6 -6 4 -12 -5 -17 -21 -59 -30
-75 -16 -9 7 -17 7 -28 -2 -8 -7 -21 -10 -29 -7 -8 3 -20 0 -26 -8 -9 -11 -3
-14 37 -15 105 -3 142 -7 157 -19 8 -7 19 -10 24 -7 6 3 12 -3 15 -13 5 -20
21 -22 45 -8 6 5 12 4 12 -1 0 -5 9 -12 20 -15 15 -4 20 -14 20 -40 0 -23 6
-37 16 -41 9 -4 18 -5 20 -4 7 8 40 208 35 215 -10 13 -53 11 -58 -4z"/>
<path d="M5611 180 c0 -29 1 -32 10 -17 7 11 7 23 0 35 -9 14 -10 11 -10 -18z"/>
<path d="M4912 175 c0 -16 2 -22 5 -12 2 9 2 23 0 30 -3 6 -5 -1 -5 -18z"/>
<path d="M4941 174 c0 -11 3 -14 6 -6 3 7 2 16 -1 19 -3 4 -6 -2 -5 -13z"/>
<path d="M5835 177 c-16 -6 -36 -11 -42 -13 -26 -7 -12 -21 20 -19 75 4 126
17 120 31 -4 11 -8 11 -26 -1 -26 -18 -35 -19 -39 -2 -2 9 -11 10 -33 4z"/>
<path d="M5170 165 c0 -8 5 -15 10 -15 6 0 10 7 10 15 0 8 -4 15 -10 15 -5 0
-10 -7 -10 -15z"/>
<path d="M5955 170 c-3 -5 -1 -10 4 -10 6 0 11 5 11 10 0 6 -2 10 -4 10 -3 0
-8 -4 -11 -10z"/>
<path d="M4785 161 c3 -6 11 -8 17 -5 7 4 8 2 4 -4 -10 -16 -33 -15 -39 1 -3
6 -6 -1 -6 -17 -1 -23 2 -27 11 -18 17 17 28 15 28 -4 0 -8 -4 -12 -10 -9 -5
3 -17 2 -26 -3 -11 -6 -13 -12 -6 -16 6 -4 9 -13 6 -20 -3 -8 0 -17 7 -22 8
-4 10 -3 5 4 -4 7 -2 12 3 12 6 0 11 8 11 18 0 14 2 15 10 2 7 -11 10 -7 10
18 0 17 5 32 11 32 6 0 9 -7 6 -15 -4 -8 -3 -17 2 -19 4 -3 7 12 7 32 -1 33
-4 37 -30 40 -18 2 -26 0 -21 -7z"/>
<path d="M5727 159 c-10 -6 -27 -9 -38 -6 -11 3 -19 0 -19 -6 0 -17 -63 -15
-77 3 -10 13 -12 13 -18 -1 -9 -23 -154 -22 -172 1 -6 8 -15 12 -19 8 -4 -4
-1 -16 7 -25 7 -10 9 -15 4 -10 -4 4 -16 0 -25 -8 -16 -15 -55 -11 -45 5 2 4
-2 16 -11 26 -13 18 -14 16 -8 -18 5 -32 3 -38 -12 -39 -11 -1 -23 0 -29 1
-21 6 -49 0 -55 -10 -13 -22 -43 -5 -55 29 -9 28 -13 31 -18 17 -9 -24 -9 -28
3 -21 6 3 10 -1 10 -9 0 -12 -10 -16 -34 -16 -19 0 -37 4 -41 10 -12 20 -74
-17 -88 -52 -5 -14 -16 -16 -56 -13 -39 3 -51 0 -51 -11 0 -12 37 -14 231 -14
220 0 230 1 227 19 -5 29 28 59 57 53 14 -2 25 -8 25 -13 0 -5 5 -9 10 -9 6 0
10 10 10 22 0 17 3 19 12 10 6 -6 17 -8 27 -3 9 5 43 11 77 14 71 5 215 48
211 61 -5 15 -20 16 -40 5z"/>
<path d="M4990 144 c0 -8 5 -12 10 -9 6 4 8 11 5 16 -9 14 -15 11 -15 -7z"/>
<path d="M4727 101 c-4 -17 -3 -21 5 -13 5 5 8 16 6 23 -3 8 -7 3 -11 -10z"/>
<path d="M4701 54 c0 -11 3 -14 6 -6 3 7 2 16 -1 19 -3 4 -6 -2 -5 -13z"/>
<path d="M4875 59 c-4 -6 -5 -12 -2 -15 2 -3 7 2 10 11 7 17 1 20 -8 4z"/>
<path d="M4800 8 c0 -10 17 -10 24 0 3 5 -1 9 -9 9 -8 0 -15 -4 -15 -9z"/>
</g>
</svg>
